<svg xmlns="http://www.w3.org/2000/svg" viewBox="0 0 982.26 956.63"><defs><style>.cls-1{fill:#efdac5;stroke:#8c6239;stroke-width:5px;}.cls-1,.cls-11,.cls-12,.cls-17{stroke-linecap:round;stroke-linejoin:round;}.cls-12,.cls-2{fill:#444;}.cls-3{fill:#555;}.cls-4{fill:#999;}.cls-5{fill:#9dddf4;}.cls-6{fill:#cfeef9;}.cls-7{fill:#826052;}.cls-8{fill:#efe459;}.cls-9{fill:#543a22;}.cls-10{fill:#ff7d8a;}.cls-11{fill:none;stroke-width:3px;}.cls-11,.cls-12{stroke:#444;}.cls-13{fill:#6d4b3d;}.cls-14{fill:#84665a;}.cls-15{fill:#563423;}.cls-16{fill:#fcbebb;}.cls-17{fill:#fff;stroke:#555;stroke-width:6px;}</style></defs><title>404</title><g id="Слой_2" data-name="Слой 2"><path class="cls-1" d="M650.56,792.66c-1.34-16.58-8.9-25.58-29-19.3-8.56.83-23.35,15.11-43.73,41.45-20.63,18.27-41.48,28.81-62.49,33.64l-24.53,59.26C559.48,896.39,649.94,836,650.56,792.66Z" transform="translate(-9.07 -38.67)"/><path class="cls-1" d="M116.45,273.54c11.61,3.88,23.16,24.42,34.67,54.46,3.75,9.79,14,16.71,24.17,14,61.36-16.48,126.12-20.54,200.81-2.41,7.37,1.79,15-2.24,18.71-8.84,10.25-18.07,30.45-51.87,36.25-57.19,27.25-25,51.79,137.87,43.64,211.6a97.29,97.29,0,0,0,5,43c15.14,42.9,28.07,101.4,35.39,142.9,8.44,43.06,10.59,90.75,7.95,142C511.08,917.28,453.18,972.8,357.24,988c-52.89,6.06-105.48,6.83-157.88,0C76.13,975.47,29,907.65,15.11,842.58c-10-58.5,3.32-115.37,12.75-164.69,8.48-49,21.62-98.67,39-149.06a73.13,73.13,0,0,0,2.67-36.66C58.27,428.89,100.1,261.7,116.45,273.54Z" transform="translate(-9.07 -38.67)"/><path class="cls-1" d="M342.6,934.15c24.12-21.06,46.76-66.07,52.72-99,6.53-20.72,32.37-20.16,36.45,1.71,3.2,34.92-7.32,65.61-30.87,97.3" transform="translate(-9.07 -38.67)"/><path class="cls-1" d="M201,934.15c-24.12-21.06-46.75-66.07-52.72-99-6.53-20.72-32.37-20.16-36.45,1.71-3.2,34.92,7.32,65.61,30.87,97.3" transform="translate(-9.07 -38.67)"/><g id="Слой_7" data-name="Слой 7"><path class="cls-2" d="M184.8,630.56a3.15,3.15,0,1,0,3.15-3.15A3.15,3.15,0,0,0,184.8,630.56Z" transform="translate(-9.07 -38.67)"/><circle class="cls-3" cx="213.51" cy="591.89" r="59"/><polygon class="cls-3" points="178.88 640.64 164.76 627.16 119.4 671.65 119.4 682.44 127.73 687.93 136.41 683.52 178.88 640.64"/><polygon class="cls-4" points="151.77 642.27 163.14 653.66 178.02 639.02 164.76 627.16 151.77 642.27"/><path class="cls-2" d="M124.35,716.2a12.59,12.59,0,0,0,21.5,8.9l30.4-30.4h0l11.61-11.61a63,63,0,1,0-17.81-17.81l-42,42A12.51,12.51,0,0,0,124.35,716.2Zm52.35-52.41a56.72,56.72,0,1,1,12.65,12.65h0A57.07,57.07,0,0,1,176.7,663.79Zm-2.89,24.44a77.92,77.92,0,0,1-8.9-8.9l8.93-8.94a63.59,63.59,0,0,0,8.91,8.91Zm-43.16,28a6.25,6.25,0,0,1,1.84-4.45l28-28a81.3,81.3,0,0,0,8.9,8.9l-28,28a6.29,6.29,0,0,1-10.74-4.45Z" transform="translate(-9.07 -38.67)"/><circle class="cls-5" cx="213.51" cy="591.89" r="46.32"/><path class="cls-2" d="M172.2,630.56a50.38,50.38,0,1,0,50.38-50.37A50.44,50.44,0,0,0,172.2,630.56Zm6.3,0a44.08,44.08,0,1,1,44.08,44.08A44.12,44.12,0,0,1,178.5,630.56Z" transform="translate(-9.07 -38.67)"/><path class="cls-6" d="M189.11,621.12a3.14,3.14,0,0,0,4.06-1.81,31.71,31.71,0,0,1,29.41-20.23,3.15,3.15,0,1,0,0-6.3,37.83,37.83,0,0,0-35.28,24.27A3.14,3.14,0,0,0,189.11,621.12Z" transform="translate(-9.07 -38.67)"/></g><path class="cls-1" d="M113.89,624.57c10,22.24,25.54,44.57,47.14,67,20.44,21.58-2.84,36.53-18.74,29.52-32-17.74-54.68-39.55-67-65.87" transform="translate(-9.07 -38.67)"/><g id="Слой_6" data-name="Слой 6"><polygon class="cls-7" points="386.28 481.59 430.42 482.65 433.83 485.76 433.14 534.5 419.06 553.72 403.92 559.96 370.79 552.39 351.29 530.81 339.14 513.96 335.01 502.98 322.01 488.88 305.86 479.76 288.07 475.53 284.09 467.39 289.2 460.01 304.54 461.34 321.95 466.83 347.13 482.65 370.98 505.44 381.96 512.26 382.34 488.22 386.28 481.59"/><polygon class="cls-8" points="342.28 478.56 328.29 493.9 335.01 502.98 350.44 485.8 342.28 478.56"/><path class="cls-9" d="M346.32,541.62l12.51-13.93c5.19,5.25,11.58,14.18,31.49,25.27a2.27,2.27,0,0,0,3.37-2V527.47a4.52,4.52,0,0,1,4.5-4.51h11.12a2.27,2.27,0,1,0,0-4.53H398.19a9.06,9.06,0,0,0-9,9v19.6c-9.59-5.68-17.18-11.7-23.11-18.33-17.52-19.57-41.07-31.38-64.41-32a10.32,10.32,0,0,0-.91,20.62,51.11,51.11,0,0,1,34.91,17.3c8.12,9.06,9,14.81,15.05,25.39a2.27,2.27,0,1,0,3.93-2.26C349.81,549.41,349.61,547.27,346.32,541.62Zm-2.52-4q-1.6-2.32-3.39-4.47l11.42-11.85c1.24,1,2.48,2.07,3.74,3.23ZM301,512.79a5.78,5.78,0,0,1,.51-11.55c16.09.45,31.39,6.12,46.69,17.31L337.36,529.8A55.69,55.69,0,0,0,301,512.79Z" transform="translate(-9.07 -38.67)"/><path class="cls-9" d="M436.85,518.43H409.31a3.22,3.22,0,0,0-2.64,2.89c0,1.25.56,1.64,1.81,1.64h28.37a4.52,4.52,0,0,1,4.5,4.51V560.9a36.84,36.84,0,0,1-60.52,28.21c-8.41-7.17-21.39-24.57-27.38-33.42-.7-1-2.08-3-3.12-2.31s-.83,4.76-.12,5.8c6.22,9.18,19,26,27.68,33.38a41.38,41.38,0,0,0,68-31.66V527.47A9.06,9.06,0,0,0,436.85,518.43Z" transform="translate(-9.07 -38.67)"/></g><path class="cls-1" d="M461.41,637c-18.91-15.44-36.5-36.16-52.62-62.8-15.59-25.31-36-6.66-33.35,10.51,8.9,35.49,24.14,63,46.4,81.71" transform="translate(-9.07 -38.67)"/><circle class="cls-2" cx="346.82" cy="395.44" r="13.32"/><circle class="cls-2" cx="184.33" cy="395.44" r="13.32"/><path class="cls-10" d="M258.76,488.25c5.27,20.48,20.18,20.08,25.86,0-7.73-4.28-12.39-11.94-13-24C270.86,477.16,266.29,484.65,258.76,488.25Z" transform="translate(-9.07 -38.67)"/><path class="cls-11" d="M224.45,478.24c22,20.82,46.18,7.8,47.13-7.71.85,17.07,27.45,27.39,46.19,7.52" transform="translate(-9.07 -38.67)"/><polygon class="cls-12" points="235.22 408.77 289.74 408.77 262.48 434.13 235.22 408.77"/><g id="Слой_5" data-name="Слой 5"><line class="cls-11" x1="383.11" y1="429.16" x2="435.37" y2="411.55"/><line class="cls-11" x1="386.28" y1="436.54" x2="429.11" y2="436.54"/><line class="cls-11" x1="386.28" y1="445.2" x2="435.37" y2="458.69"/><line class="cls-11" x1="150.18" y1="429.16" x2="97.91" y2="411.55"/><line class="cls-11" x1="147" y1="436.54" x2="104.18" y2="436.54"/><line class="cls-11" x1="147" y1="445.2" x2="97.91" y2="458.69"/><polygon class="cls-13" points="428.53 242.6 438.79 260.49 444.43 283.01 441.5 309.08 433.64 342.83 350.16 296.84 375.71 266.45 403.82 247.43 420.86 242.6 428.53 242.6"/><polygon class="cls-14" points="432.79 246.58 455.22 262.76 470.84 285.19 479.64 314.72 479.64 338.86 474.25 366.69 432.79 344.25 438.79 323 443.01 298.25 443.29 286.33 441.88 272.84 432.79 246.58"/><polygon class="cls-14" points="423.99 240.33 397.29 232.3 369.18 230.68 346.82 236.92 326.59 250.84 302.17 268.73 323.47 283.01 348.74 296.84 364.36 278.66 375.71 266.45 392.75 254.81 412.03 245.1 423.99 240.33"/><polygon class="cls-13" points="435.63 347.38 474.25 366.69 477.17 401.33 472.66 417.23 459.76 404.74 435.63 347.38"/><polygon class="cls-13" points="302.17 268.73 248.17 283.01 243.96 288.6 258.78 294 346.82 295.79 302.17 268.73"/><polygon class="cls-14" points="417.74 236.07 426.54 228.69 435.63 230.68 442.73 238.68 440.49 249.13 417.74 236.07"/><path class="cls-15" d="M453.59,287.66a16.67,16.67,0,0,0-29-16.12,104,104,0,0,0-33-6.11c-2-.05-19.28,2.73-19.32,4.71s17.18,2.4,19.16,2.44A95.59,95.59,0,0,1,423.72,279c-33.15,10.3-58.63,41.92-65.91,51.8l-41.17-23.3,45.59-31.09a96.67,96.67,0,0,1,17-3.31c2-.2,26.63-.9,17.14-3.88,5.37-5.55-15.9-3.44-17.87-3.24-7.82.8-18.35,3.18-19.85,4.2l-50.17,34.21c-3.19.58-15.89,2.95-28.38,6-26.47,6.54-31.52,10.94-31.08,15.93.46,5.28,7.55,8,26.16,9.92,17.63,1.84,45.45,2.78,82.7,2.8l81.86,46.35c1.66,4.39,7.57,19.9,14.41,35.24,15,33.73,21.57,38.38,26.38,38.38a6.09,6.09,0,0,0,4.62-2.13c2.95-3.3,5.79-12.05,1.57-50.62A104.13,104.13,0,0,0,453.59,287.66Zm-196.35,38c9-5.71,41.45-12.18,52-14.11l35.93,20.34C330.19,331.75,270.9,331.33,257.24,325.62Zm190.32-42.38a103.45,103.45,0,0,0-16-8.91C438.23,267.48,449.84,273.86,447.56,283.24Zm32.58,168.35c-8.8-5.87-26.87-51.16-30.58-60.64L479.72,408C480.56,415.79,483.54,444.46,480.14,451.59Zm1-51L446.8,381.16c1.5-6,5.12-21,7.4-35.9.3-2,3.09-18.36-1.09-17.68-4.13-1.11-5.69,14.64-6,16.59-2,13.2-5.12,26.56-6.79,33.33l-76.24-43.17c8-10.58,36-44.57,70.14-50.56.46.24.9.49,1.35.74,2.47,3.58,11.65,17.83,13.25,34.26a75.46,75.46,0,0,1-.22,13.42c-.18,2-1.47,15.4,1.95,15.56,3.42.36,5-12.95,5.18-14.92,1-10.8,1.05-22.53-7-39.59A96.86,96.86,0,0,1,481.16,400.61Z" transform="translate(-9.07 -38.67)"/></g><g id="Слой_3" data-name="Слой 3"><circle class="cls-16" cx="121.77" cy="808.94" r="8.18"/><circle class="cls-16" cx="124.84" cy="793.52" r="3.06"/><circle class="cls-16" cx="132.57" cy="800.45" r="3.06"/><circle class="cls-16" cx="115.62" cy="794.51" r="3.06"/><circle class="cls-16" cx="109.11" cy="802.47" r="3.06"/></g><g id="Слой_3_копия_" data-name="Слой 3 (копия)"><circle class="cls-16" cx="403.86" cy="808.94" r="8.18"/><circle class="cls-16" cx="400.8" cy="793.52" r="3.06"/><circle class="cls-16" cx="393.06" cy="800.45" r="3.06"/><circle class="cls-16" cx="410.01" cy="794.51" r="3.06"/><circle class="cls-16" cx="416.52" cy="802.47" r="3.06"/></g></g><g id="Слой_8" data-name="Слой 8"><path class="cls-17" d="M541.81,313.5c-8,21.33-22.77,38.92-40.48,54.84,53.71,1.42,93.29-7.86,121.93-25.42a438.87,438.87,0,0,0,97.66,10.73c147.69,0,267.41-69.84,267.41-156s-119.72-156-267.41-156-267.42,69.84-267.42,156C453.5,243.62,487.58,285,541.81,313.5Z" transform="translate(-9.07 -38.67)"/><path class="cls-2" d="M684,124.43h7.09v10H684V148H671.58V134.44H645.93l-.56-7.82,26.09-41.21H684Zm-26.25,0h13.83V102.34l-.81,1.42Z" transform="translate(-9.07 -38.67)"/><path class="cls-2" d="M739.86,122.11a42.44,42.44,0,0,1-1.52,12.1,23,23,0,0,1-4.3,8.31,16.59,16.59,0,0,1-6.66,4.79,25,25,0,0,1-17.23,0,16.72,16.72,0,0,1-6.68-4.79,23,23,0,0,1-4.34-8.31,41.66,41.66,0,0,1-1.55-12.1V111.24a42.06,42.06,0,0,1,1.53-12.1,22.43,22.43,0,0,1,4.31-8.29,17,17,0,0,1,6.66-4.77,25.12,25.12,0,0,1,17.21,0A16.9,16.9,0,0,1,734,90.85a22.92,22.92,0,0,1,4.34,8.29,41.69,41.69,0,0,1,1.54,12.1Zm-12.42-12.63a35.48,35.48,0,0,0-.58-7,13.19,13.19,0,0,0-1.71-4.57,6.87,6.87,0,0,0-2.78-2.52,9.2,9.2,0,0,0-7.37,0,6.73,6.73,0,0,0-2.72,2.52,13.4,13.4,0,0,0-1.7,4.57,35.48,35.48,0,0,0-.58,7v14.26a35.43,35.43,0,0,0,.6,7.09,14.08,14.08,0,0,0,1.72,4.66,6.52,6.52,0,0,0,2.75,2.56,9.25,9.25,0,0,0,7.39,0,6.42,6.42,0,0,0,2.73-2.56,14.11,14.11,0,0,0,1.67-4.66,36.36,36.36,0,0,0,.58-7.09Z" transform="translate(-9.07 -38.67)"/><path class="cls-2" d="M785,124.43h7.09v10H785V148H772.56V134.44H746.91l-.56-7.82,26.08-41.21H785Zm-26.25,0h13.83V102.34l-.81,1.42Z" transform="translate(-9.07 -38.67)"/><path class="cls-2" d="M570.84,263H558l-25.09-41.17V263H520V200.41h12.89L558,241.66V200.41h12.84Z" transform="translate(-9.07 -38.67)"/><path class="cls-2" d="M579.35,239.3a29.42,29.42,0,0,1,1.46-9.41,21.76,21.76,0,0,1,4.26-7.5,19.62,19.62,0,0,1,6.89-5,23.07,23.07,0,0,1,9.35-1.8,23.33,23.33,0,0,1,9.41,1.8,19.82,19.82,0,0,1,6.94,5,21.31,21.31,0,0,1,4.27,7.5,29.14,29.14,0,0,1,1.47,9.41v.9a29.15,29.15,0,0,1-1.47,9.44,21.27,21.27,0,0,1-4.27,7.47,19.63,19.63,0,0,1-6.9,4.94,25.45,25.45,0,0,1-18.75,0,19.44,19.44,0,0,1-6.92-4.94,21.44,21.44,0,0,1-4.28-7.47,29.43,29.43,0,0,1-1.46-9.44Zm12.42.9a25.84,25.84,0,0,0,.52,5.33,13.06,13.06,0,0,0,1.65,4.32,9.18,9.18,0,0,0,11.86,2.9,8.82,8.82,0,0,0,3-2.9,12.86,12.86,0,0,0,1.67-4.32,25.84,25.84,0,0,0,.52-5.33v-.9a25.11,25.11,0,0,0-.52-5.22,13.31,13.31,0,0,0-1.67-4.34,8.78,8.78,0,0,0-3-3,8.61,8.61,0,0,0-4.47-1.1,8.38,8.38,0,0,0-4.4,1.1,8.59,8.59,0,0,0-3,3,13.52,13.52,0,0,0-1.65,4.34,25.11,25.11,0,0,0-.52,5.22Z" transform="translate(-9.07 -38.67)"/><path class="cls-2" d="M645.91,205.06v11.42h8v9.11h-8V248.8a8.07,8.07,0,0,0,.3,2.4,3,3,0,0,0,2.39,2.22,9.7,9.7,0,0,0,2.08.19c.74,0,1.43,0,2-.09a14.5,14.5,0,0,0,1.61-.21v9.41a28.37,28.37,0,0,1-3.37.79,23.51,23.51,0,0,1-4.15.33,18.47,18.47,0,0,1-5.5-.76,10.52,10.52,0,0,1-4.19-2.38,10.72,10.72,0,0,1-2.68-4.25,18.73,18.73,0,0,1-1-6.32V225.59H626.7v-9.11h6.79V205.06Z" transform="translate(-9.07 -38.67)"/><path class="cls-2" d="M721.15,237.41H696.4V263H683.51V200.41h40.73v10.45H696.4V227h24.75Z" transform="translate(-9.07 -38.67)"/><path class="cls-2" d="M728.07,239.3a29.14,29.14,0,0,1,1.46-9.41,21.58,21.58,0,0,1,4.25-7.5,19.57,19.57,0,0,1,6.9-5,23,23,0,0,1,9.34-1.8,23.3,23.3,0,0,1,9.41,1.8,19.73,19.73,0,0,1,6.94,5,21.49,21.49,0,0,1,4.28,7.5,29.42,29.42,0,0,1,1.46,9.41v.9a29.43,29.43,0,0,1-1.46,9.44,21.44,21.44,0,0,1-4.28,7.47,19.5,19.5,0,0,1-6.89,4.94,25.47,25.47,0,0,1-18.76,0,19.62,19.62,0,0,1-6.92-4.94,21.42,21.42,0,0,1-4.27-7.47,29.15,29.15,0,0,1-1.46-9.44Zm12.42.9a26.57,26.57,0,0,0,.51,5.33,13.06,13.06,0,0,0,1.66,4.32,8.47,8.47,0,0,0,3,2.9,8.68,8.68,0,0,0,4.49,1.07,8.46,8.46,0,0,0,4.4-1.07,8.73,8.73,0,0,0,3-2.9,13.08,13.08,0,0,0,1.68-4.32,26.57,26.57,0,0,0,.51-5.33v-.9a25.82,25.82,0,0,0-.51-5.22,13.55,13.55,0,0,0-1.68-4.34,8.7,8.7,0,0,0-3-3,8.61,8.61,0,0,0-4.47-1.1,8.17,8.17,0,0,0-7.36,4.06,13.53,13.53,0,0,0-1.66,4.34,25.82,25.82,0,0,0-.51,5.22Z" transform="translate(-9.07 -38.67)"/><path class="cls-2" d="M807.6,258.25a15,15,0,0,1-5.33,4.13,17.4,17.4,0,0,1-7.39,1.46,19.45,19.45,0,0,1-6.27-1,12.21,12.21,0,0,1-4.88-3.05,13.9,13.9,0,0,1-3.15-5.37,24.47,24.47,0,0,1-1.12-7.89V216.48h12.42v30.17a9.83,9.83,0,0,0,.49,3.31,5.64,5.64,0,0,0,1.38,2.21,5.33,5.33,0,0,0,2.08,1.23,8.9,8.9,0,0,0,2.66.38,11.17,11.17,0,0,0,5.46-1.16,7.92,7.92,0,0,0,3.22-3.22V216.48h12.46V263H808Z" transform="translate(-9.07 -38.67)"/><path class="cls-2" d="M840.43,216.48l.39,5.38a16.12,16.12,0,0,1,5.8-4.62,17.31,17.31,0,0,1,7.56-1.61,18.46,18.46,0,0,1,6,.92,11.16,11.16,0,0,1,4.64,3,14.18,14.18,0,0,1,3,5.5,28.47,28.47,0,0,1,1.06,8.33V263H856.46V233.33a11.73,11.73,0,0,0-.5-3.7,5.1,5.1,0,0,0-3.76-3.54,12.51,12.51,0,0,0-3.18-.37,8.72,8.72,0,0,0-4.7,1.21,9.23,9.23,0,0,0-3.16,3.26V263H828.74v-46.5Z" transform="translate(-9.07 -38.67)"/><path class="cls-2" d="M876.35,239.39a35.69,35.69,0,0,1,1.23-9.67,22.86,22.86,0,0,1,3.54-7.52,16.1,16.1,0,0,1,5.72-4.86,16.94,16.94,0,0,1,7.73-1.71,14.44,14.44,0,0,1,6.34,1.33,15.17,15.17,0,0,1,4.88,3.74V197h12.46v66H907l-.6-4.94a16.08,16.08,0,0,1-5.11,4.27,14.54,14.54,0,0,1-6.83,1.53,16.11,16.11,0,0,1-7.67-1.79,16.81,16.81,0,0,1-5.7-4.92,22.87,22.87,0,0,1-3.54-7.45,34.18,34.18,0,0,1-1.23-9.39Zm12.42.9a28.26,28.26,0,0,0,.47,5.28,13.86,13.86,0,0,0,1.53,4.28,8,8,0,0,0,2.75,2.88,7.73,7.73,0,0,0,4.15,1.05,9,9,0,0,0,5-1.29,8.8,8.8,0,0,0,3.12-3.56V230.58a8.57,8.57,0,0,0-3.12-3.59,9,9,0,0,0-4.92-1.27,7.78,7.78,0,0,0-4.17,1.06,7.88,7.88,0,0,0-2.77,2.9,14.32,14.32,0,0,0-1.55,4.34,27.55,27.55,0,0,0-.49,5.37Z" transform="translate(-9.07 -38.67)"/></g></svg>