<svg id="Слой_1" data-name="Слой 1" xmlns="http://www.w3.org/2000/svg" viewBox="0 0 833.03 139.73"><defs><style>.cls-1,.cls-2{fill:#fff;}.cls-1{stroke:#fff;stroke-miterlimit:10;}</style></defs><title>Питомник</title><path class="cls-1" d="M175.53,82.9c-.2,1,.4,1,.4,2v1c0,1.6-1.6,3-.8,4.8.2.2.2.6.2,1.2v2.4c-.2,2.2-.2,6-.2,8.2v12.4a10.35,10.35,0,0,1-.4,4.2v85.4c-1.2-.8-2.2-3-4-3-.6,0-.8.2-1.4.2-2.2.8-4,2.2-4.6,2.2a17.83,17.83,0,0,1-2.2.4,7.87,7.87,0,0,1-1.2-.4c-1.4-.8-1.8-2.4-2.8-3l-.6-.2c-1.8,0-3.4,1.8-5.2,3.2a.73.73,0,0,1-.6.2l-1.4.2c.6-12,.2-23,0-36.6,0-3.4-.2-6.8-.2-10-.2-10.4-.6-20.4-.6-30.6,0-11.8.4-20.2.6-31.6h-7.4c-8.4,0-16.6-.4-24-.8l-1.6,15.8-1,68.4-.6,14.4c-1.2-.2-1-2.4-2.4-2.4-2.4,0-5.6,2-6.2,2.2a8.51,8.51,0,0,1-2.2.4,5.09,5.09,0,0,1-1.4-.4c-1-.6-1.6-2.2-3.2-2.8-1.6,0-3.6,1.6-5.2,3-.2.2-.4.2-.8.2l-1.8-.2a7.87,7.87,0,0,0-1.2.4c1-15.8.8-71.4.8-76.6,0-3.2.8-6.4,1.2-9.2.8-4.4.8-11,1.2-15.4l-.4-1.4c0-.6.8-1.4.4-2.4l-.4-1v-.8c0-2.2-.2-4.4,0-6.6.2-1.4.4-2.2.4-2.8a3.86,3.86,0,0,0-.6-2,3.31,3.31,0,0,1-1-2.4v-2l-.4-2v-.6c2.2-1,2.8.8,11.4-.2,6.2-.8,34.8,1.8,41,1.6,7.8,0,25.4.4,30.8.2v2.8c0,1.6-.4,3.8-.4,6.4a5,5,0,0,1,.2,2C175.73,82.1,175.73,82.7,175.53,82.9Z" transform="translate(-90.98 -67.65)"/><path class="cls-1" d="M291.32,112.1c0,2.2-.2,4.2-.2,4.8-.8,11-7.4,64.4-7.4,74.8v10c-1.2-.8-.8-3-2.59-3-.61,0-.81.2-1.4.2-2.21.8-4,2.2-4.6,2.2a17.57,17.57,0,0,1-2.21.4,8.27,8.27,0,0,1-1.19-.4c-1.4-.8-1.8-2.4-2.8-3l-.6-.2c-1.81,0-3.4,1.8-5.2,3.2a.73.73,0,0,1-.6.2l-1.8-.2a2.33,2.33,0,0,0-1.4.4c0-14.2.8-18.6,1.6-32.4l2.4-24.4-37,37.4.2,11.8c-1.2-.2-1-2.4-2.4-2.4-2.4,0-5.6,2-6.2,2.2a8.51,8.51,0,0,1-2.2.4,5.09,5.09,0,0,1-1.4-.4c-1-.6-1.6-2.2-3.2-2.8-1.6,0-3.6,1.6-5.2,3-.2.2-.4.2-.8.2l-1.8-.2a7.87,7.87,0,0,0-1.2.4c-.2-3.8-.2-11.8-.2-21.8,0-25.2.4-63,1-76.6a8,8,0,0,1,3-.6l11.4,1.8a2.78,2.78,0,0,0,2-1c.6-1,1-3,1.6-3,.2,0,.4.4.6,1.4l.2,1-.2,1.4v7.2c.6,2.6,2,3,2.8,4,.6-5.8,0-12,2-14.6v14.2a45.2,45.2,0,0,1-.2,5.2c-.2,5-.2,9.8-.2,13.8l.2,21.6c14-14.2,32.4-33,40.8-41.8l.8-7.2a8,8,0,0,1,3-.6c3,0,6.19,1.4,8.79,1.4l2.61.4a2.46,2.46,0,0,0,2-1.2c.79-1,1.19-3,1.79-3,.21,0,.4.4.8,1.4v10.4c.6,2.4,1.8,2.4,2.6,3.8.2-4.2.6-6.2,1.2-6.2S291.32,107.9,291.32,112.1Z" transform="translate(-90.98 -67.65)"/><path class="cls-1" d="M359.32,125.1v15.6a10.35,10.35,0,0,1-.4,4.2v19.6a100.4,100.4,0,0,0,.8,13.4v1c.6,5.6.8,11,1,17.2-2-.4-2.4-2.4-4-2.4-2.2,0-3.8,2.2-4.4,2.4a8.6,8.6,0,0,1-2.4.4c-.6,0-1.2,0-1.4-.2-.8-.6-1.8-2.2-3.4-2.4-1.8,0-3.4,1.6-5,2.6a3.77,3.77,0,0,1-1.6.4h-1.2c-.6,0-1.2,0-1.4.2-.6-11.8-1-44.2-1.2-79h-7.4c2.8,0-4-.6-17.6-1.6l-1.8-.2-.4-1.6a14.77,14.77,0,0,1,.4-2.4l.2-1v-.8a32.55,32.55,0,0,0,1.4-6c.2-1.4.4-2.2.4-2.8a3.86,3.86,0,0,0-.6-2c-.8-.6-2-1-2-1.6,0-.2.4-.6,1-.8.6,0,1-.2,1.6-.2l1.8.2a5,5,0,0,0,2,.2,3.9,3.9,0,0,0,1.6-.2c1.8-.6,2-1.8,3-2.8-4-.6-6.6-.8-9.8-1.6l-.6-.2c1.8-.8,3.6.2,5.4.2l16-.4c7.8,0,15.2,0,23.4-.2,8.2-.8,24.8-.6,31-.8-.6,1.4-2.2.8-2.2,2.2a4,4,0,0,0,.4,1.8c.6,2.2,1.6,4.4,1.6,4.6a5,5,0,0,1,.2,2c0,.8,0,1.4-.2,1.6-.2,1-2,1.8-2,2.8v1c0,1.6,1.4,3,2.2,4.8.2.2.2.6.2,1.2v1.4c0,.6,0,1.2-24.4,3.6C359.32,120.7,359.32,122.9,359.32,125.1Z" transform="translate(-90.98 -67.65)"/><path class="cls-1" d="M485.52,169.9a36.17,36.17,0,0,1-5.6,8.4,39.21,39.21,0,0,1-17.2,13.4,36.56,36.56,0,0,1-11.8,3.6,58.08,58.08,0,0,1-11.8,0l-2-.2-2-.2a47,47,0,0,1-11.6-2c-3.8-1.4-7.8-3-10.8-5.6a39.26,39.26,0,0,1-8.2-7.2,57.79,57.79,0,0,1-5.4-8.8,30.49,30.49,0,0,1-3.4-9.2,77.53,77.53,0,0,1-1.8-16.4c0-1.2.2-2.6.2-4v-.2a55.65,55.65,0,0,1,12-27.6,68.61,68.61,0,0,1,13.8-12.4l1.2-.4c1.6.2,2.4.6,3,1.6.4.2.6,1,.8,1.8v1.6l.6,3.4a4.87,4.87,0,0,0,1,3l.6,2.4a2.76,2.76,0,0,0,1.8,1,4.3,4.3,0,0,1,1.6,0c.6-.2,3.6-1.6,5-1.4.4,0,.6,0,.6.2-.2.6-.4.8-1.8,1.6a6.78,6.78,0,0,1-3.2,2.4c-1.2.8-2.2,2-3.8,2.8a21.3,21.3,0,0,0-6.2,6.6,8,8,0,0,0-1.4,3.6l-.2.8a14.17,14.17,0,0,0,.2,2.8,38.67,38.67,0,0,1,4.4-5.6,41.58,41.58,0,0,0,4.2-4.2c3.8-3.2,7.8-6.4,10-5.6-4.4,1.6-8.2,5.2-12,9.4a28,28,0,0,0-6,14.4c-1,8,1.6,21.4,14.6,23.4,1.2.2,4,.4,5.4.6a52.27,52.27,0,0,0,5.6,0c11.2-.8,18.8-8.8,20.4-21,0-.8.8-7.4.4-9.6-1-4-2.8-7-4.6-10.2l-2.4-2.8a2.39,2.39,0,0,0-1.4-1.4l-1-1.2-2.4-1.4-2-.4c-.8,0-1.4.2-2.8.2a42.1,42.1,0,0,0-4.6.2l-4.8,1c-3.4,0-1.2-.8-1-1.4.2-.2.2-.6.2-1.4a3,3,0,0,0-.6-1.4c-.6-1.4-1.4-1.8-2.6-3-1.6-.6-2.2-1.4-2.2-1.8a3,3,0,0,0-.8-1.6l.2-.8a2.33,2.33,0,0,1,.4-1.4c.8-.6,1.6-.8,3.2-1.8,1-.4,2.2-.8,2.2-1.4l.2-1.4c0-.6-.8-1.2-1.8-1.8l-4-2.4a1.45,1.45,0,0,1-.4-1.6v-2a1.07,1.07,0,0,0-.6-.8c2.6-.4,5.6-.6,9.4-1.2l6.8-1,8.4.8a27.15,27.15,0,0,1,7.2,1.8,21.36,21.36,0,0,1,7.2,4.2l3,2,2.6,2.8a39.35,39.35,0,0,1,5,5,58.76,58.76,0,0,1,6.4,12.2c1.2,3.6,2.8,7.6,3.4,11a25.47,25.47,0,0,1,.4,4.4c0,4.6-.8,10.2-1,13A72.66,72.66,0,0,1,485.52,169.9Z" transform="translate(-90.98 -67.65)"/><path class="cls-1" d="M597.72,93.5c.2,0,.4.4.4,1.2v8.4c0,2.6.2,4.6,1.6,4.6.8,0,1.8-1.4,1.6-1.4,1.6,0,4.8,91.4,4.8,100.2-1-.6-.8-2.8-2.2-2.8a10.15,10.15,0,0,0-1.8.4,14.73,14.73,0,0,0-4.4,2.2,3.36,3.36,0,0,1-2.2.4,7.87,7.87,0,0,1-1.2-.4c-1.4-.8-1.6-2.8-3-3l-.6-.2c-1.6,0-3.2,1.8-4.8,3.2l-4,.4c-.2-13.6-1.2-35.6-2.4-69.6l-21.2,19-20.6-18.4c.8,9.4.8,18.2,1.8,31l1.8,25c-1.6,0-1-2.4-2.4-2.4a3.9,3.9,0,0,0-1.6.2,15.31,15.31,0,0,0-4.4,2,17.83,17.83,0,0,1-2.2.4,5.09,5.09,0,0,1-1.4-.4c-1-.6-1.8-2.4-2.8-2.6-.2-.2-.4-.2-.8-.2-1.6,0-3.2,1.8-4.8,2.8a7.87,7.87,0,0,1-1.2.4l-1.6-.2a1.5,1.5,0,0,0-1,.2c-.6-14-5.8-67.6-6.2-101.8a6.39,6.39,0,0,1,2.8-.6l3,.2a22.14,22.14,0,0,0,5.6,1l2.4.2a2.51,2.51,0,0,0,2.2-1.2c.8-1,1-2.8,1.6-2.8q.3,0,.6,1.2a12.5,12.5,0,0,1,.4,3.6v2.6a13.92,13.92,0,0,0,.4,3.2c.6,2.4,2,2.6,3,3.6V99.5c-.6-1-1.8-2.6-1.8-4.4l2,2.6c0-3-1-7.6.8-8.8,0,3.8.4,7.4.6,10.8l2.2,2.8,5.6,7,15.4,17.2.8.4.4-.6,10-11.8c3-5,7.4-9.8,10.4-15.2V96.3a3.71,3.71,0,0,1,2-.4C581.72,95.9,596.12,93.5,597.72,93.5Zm-59.4,13.8c-1.8-2.4-2.4-3.6-3.6-5a35.4,35.4,0,0,1,.2,4.6C536.32,107.5,536.92,107.1,538.32,107.3Z" transform="translate(-90.98 -67.65)"/><path class="cls-1" d="M710.72,105.7c.6,0,.8,2.2.8,6.4,0,2.2-.2,4.2-.2,4.8-.8,11-7.4,64.4-7.4,74.8v10c-1.2-.8-.8-3-2.6-3-.6,0-.8.2-1.4.2-2.2.8-4,2.2-4.6,2.2a17.83,17.83,0,0,1-2.2.4,7.87,7.87,0,0,1-1.2-.4c-1.4-.8-1.8-2.4-2.8-3l-.6-.2c-1.8,0-3.4,1.8-5.2,3.2a.73.73,0,0,1-.6.2l-1.8-.2a2.33,2.33,0,0,0-1.4.4c0-14.2.8-18.6,1.6-32.4l.8-14.2h-28.4l1.2,39c-1.2-.2-1-2.4-2.4-2.4-2.4,0-5.6,2-6.2,2.2a8.51,8.51,0,0,1-2.2.4,5.09,5.09,0,0,1-1.4-.4c-1-.6-1.6-2.2-3.2-2.8-1.6,0-3.6,1.6-5.2,3-.2.2-.4.2-.8.2l-1.8-.2a7.87,7.87,0,0,0-1.2.4c-.2-3.8-.2-11.8-.2-21.8,0-25.2.4-63,1-76.6a8,8,0,0,1,3-.6l11.4,1.8a2.78,2.78,0,0,0,2-1c.6-1,1-3,1.6-3,.2,0,.4.4.6,1.4l.2,1-.2,1.4v7.2c.6,2.6,2,3,2.8,4,.6-5.8,0-12,2-14.6v14.2a45.2,45.2,0,0,1-.2,5.2c-.2,5-.2,9.8-.2,13.8v7.4l9.4.2,20.8.2c1.6-16.8,3-18.2,3.6-35.2a8,8,0,0,1,3-.6c3,0,6.2,1.4,8.8,1.4l2.6.4a2.43,2.43,0,0,0,2-1.2c.8-1,1.2-3,1.8-3,.2,0,.4.4.8,1.4v10.4c.6,2.4,1.8,2.4,2.6,3.8C709.72,107.7,710.12,105.7,710.72,105.7Z" transform="translate(-90.98 -67.65)"/><path class="cls-1" d="M824.92,112.1c0,2.2-.21,4.2-.21,4.8-.79,11-7.39,64.4-7.39,74.8v10c-1.2-.8-.8-3-2.61-3-.59,0-.79.2-1.39.2-2.2.8-4,2.2-4.61,2.2a17.77,17.77,0,0,1-2.19.4,7.87,7.87,0,0,1-1.2-.4c-1.4-.8-1.8-2.4-2.8-3l-.6-.2c-1.8,0-3.4,1.8-5.2,3.2a.73.73,0,0,1-.6.2l-1.8-.2a2.33,2.33,0,0,0-1.4.4c0-14.2.8-18.6,1.6-32.4l2.4-24.4-37,37.4.2,11.8c-1.2-.2-1-2.4-2.4-2.4-2.4,0-5.6,2-6.2,2.2a8.51,8.51,0,0,1-2.2.4,5.09,5.09,0,0,1-1.4-.4c-1-.6-1.6-2.2-3.2-2.8-1.6,0-3.6,1.6-5.2,3-.2.2-.4.2-.8.2l-1.8-.2a7.87,7.87,0,0,0-1.2.4c-.2-3.8-.2-11.8-.2-21.8,0-25.2.4-63,1-76.6a8,8,0,0,1,3-.6l11.4,1.8a2.78,2.78,0,0,0,2-1c.6-1,1-3,1.6-3,.2,0,.4.4.6,1.4l.2,1-.2,1.4v7.2c.6,2.6,2,3,2.8,4,.6-5.8,0-12,2-14.6v14.2a45.2,45.2,0,0,1-.2,5.2c-.2,5-.2,9.8-.2,13.8l.2,21.6c14-14.2,32.4-33,40.8-41.8l.8-7.2a8,8,0,0,1,3-.6c3,0,6.2,1.4,8.8,1.4l2.59.4a2.41,2.41,0,0,0,2-1.2c.81-1,1.21-3,1.81-3,.19,0,.4.4.8,1.4v10.4c.6,2.4,1.8,2.4,2.6,3.8.2-4.2.59-6.2,1.2-6.2S824.92,107.9,824.92,112.1Z" transform="translate(-90.98 -67.65)"/><path class="cls-1" d="M901.51,131.7a89.34,89.34,0,0,0-7,8.2l.6,2,8.2,14.6a116.52,116.52,0,0,0,11.2,16.8,52.93,52.93,0,0,1,8.2,12.4c-1.6.8-2.8-1-5,0-2.4,1.4-4.8,3.4-6.6,3.6a36.64,36.64,0,0,0-3.8-.4c-2.4.6-4,2.2-5.6,3.6-1.4.8-3,.8-4.4,1.8-1.8-3-3.6-6.8-5.8-10l-7-13.2a172.89,172.89,0,0,1-9.2-18v7.6c0,5.8,0,8,.2,12.2.6,6.6.8,13,.8,20-1.2-.6-1.2-2.4-3-2.4-3,0-7,2-7.6,2.2a11.4,11.4,0,0,1-2.6.2,4.44,4.44,0,0,1-1.8-.2c-1.4-.8-1-2.2-2.4-2.8h-.8c-2.4,0-1.8,1.8-4,2.8h-2a8.8,8.8,0,0,0-2,.4v-38c0-8.2-1-16.4-1-24.6v-8.2l-.2-26.8a9.28,9.28,0,0,1,4.2-.8c3.4,0,3,1.2,6.2,1.2l2.2.2a4.91,4.91,0,0,0,3-1c.8-1,1.4-2.8,2-2.8.2,0,.6.4,1,1.2a5,5,0,0,1,.2,2l-.2,4.6a15.69,15.69,0,0,0,.4,2.8c.8,2.2,2.4,2.2,4,3.6,0-5.8-.8-11.6,1-14.2.6,6.4,1,12.2,1.8,18.6v-4l.2,25.4c6.4-10.2,24-33.8,29.2-38.6,2.2,1,5.8,1.2,7.2,2.8l4.6,4.8c1.4,1,2.2,3,4.6,3.2h2.2c.6,0,.8.2.8.4,0,1.2-5.4,5.2-5.4,6.8,0,1,.4,1.6,1.2,1.6s2.2-1.2,3.4-1.4C922.71,113.5,908.31,124.3,901.51,131.7Zm-7.6,13.2a9.42,9.42,0,0,1-.4-4,23,23,0,0,0-2.8,3.4C891.71,144.9,892.91,144.7,893.91,144.9Z" transform="translate(-90.98 -67.65)"/><path class="cls-2" d="M442.12,104.69a46.26,46.26,0,0,1-11,1.21,23.59,23.59,0,0,1,12.78-1.57,20.74,20.74,0,0,1-10.38,1.88,14.76,14.76,0,0,1,9.4-.29,33.1,33.1,0,0,1-6.89,1.43c-.51.05-1.26-.27-1-.7l2.06-.06-1.38-10.75L419,103.58a74.74,74.74,0,0,1,14.84-8c-2.26,1.69-5.09,2.36-7.73,3.35s-5.34,2.53-6.45,5.12a49.45,49.45,0,0,1,14.53-5.17,11.63,11.63,0,0,0-8.63,1.67,31.76,31.76,0,0,1,9.52-3.57c.73,1.12-.56,2.46-1.72,3.14a45.22,45.22,0,0,1-7.84,3.61,23.54,23.54,0,0,0,8.26-2.23,10.07,10.07,0,0,0-8.27-.2l5-1.39L424,103.35a20.25,20.25,0,0,0,4.13-.94l-2.61,1.07,10.2-4.6a2.15,2.15,0,0,1-1.64,2.21c.48-1.21,2.44-1,3.19,0a5.51,5.51,0,0,1,.5,3.79,2.46,2.46,0,0,1,0-2,6.72,6.72,0,0,1,.82,4.76,2.82,2.82,0,0,1,1.17-4,7,7,0,0,1-5.24,3.22,7.85,7.85,0,0,1,.95-4.08,5.09,5.09,0,0,0-4.72,1,22.19,22.19,0,0,0,6.2-2.68,36.31,36.31,0,0,0-7.55,3.53,28.77,28.77,0,0,1,5.48-2.48,18.73,18.73,0,0,0-10.31,3.48l4.87-2.23-3.8,2.16a8.11,8.11,0,0,0,3.74-2.93,23.9,23.9,0,0,0-7.38,2l4.51-.89a5.84,5.84,0,0,1-2.48,3.84l9-3.35a15.79,15.79,0,0,0-11.22,3.41,22,22,0,0,1,7.69-3.85,3.56,3.56,0,0,1-2.67,3.77l6.39-3.57a19,19,0,0,0-9.05,2,51,51,0,0,0,8.45-1.95,49.42,49.42,0,0,1-7.19,3.15l6.73-1.59a25.52,25.52,0,0,1-6.22,4.43l13.8-7.42a29.06,29.06,0,0,0-12.22,4.54,32.82,32.82,0,0,1,7.53-1.54l-9,4.43a27.1,27.1,0,0,1,8.73-2.74q-4.24,2.24-8.57,4.32c-.38-1.47,1.4-2.48,2.84-2.94l9.44-3A52.27,52.27,0,0,0,427,109.58a42.38,42.38,0,0,1,9.1-4.25A49.16,49.16,0,0,0,421.92,108L434,105.74a69.83,69.83,0,0,0-8.58,4.36,28.16,28.16,0,0,0,6.21-.64L426.27,111a13.45,13.45,0,0,0,3-2.19,7.69,7.69,0,0,0-4.39,1.09,10.55,10.55,0,0,1,4-1.09,15.3,15.3,0,0,0-5.76.27,6.93,6.93,0,0,1,3.07-1.9l-2.45,1.42,4.07-1.14a3.91,3.91,0,0,0-3.07,1.46,25.61,25.61,0,0,1,4.74,1,4.16,4.16,0,0,1-3.82,2.15l11.08-3.92a74.61,74.61,0,0,0-10.94,3.63,21.44,21.44,0,0,1,7.21-4.35,25,25,0,0,0-9.85,4.51,17,17,0,0,1,10-4.3,15.18,15.18,0,0,0-7.38,5.2,23.16,23.16,0,0,0,9.58-1.79,23.47,23.47,0,0,1-9.18,3.37,28.54,28.54,0,0,1,8.45-6.16,7,7,0,0,0-5,.81l8.09-.92-11,4.22,8.93-3.21a10.68,10.68,0,0,0-6.45,3.08,40.5,40.5,0,0,1,6.46-2.5l-8,3.8a20.55,20.55,0,0,1,5.33-2.1,39,39,0,0,0-5.7,2.79l7.67-2.73L431,114.14a24.13,24.13,0,0,0,4.71-.7,47.21,47.21,0,0,0-9.52,3.81l13.52-3.63a104.46,104.46,0,0,0-14.86,1.78,23,23,0,0,1,8.68-2.54,6.14,6.14,0,0,1-4.27,4,20,20,0,0,1,8.57-6.06,89,89,0,0,0-11.28,3.47l13-3.77a61.79,61.79,0,0,1-7.77,4.88,11,11,0,0,0,3.66-2.36,13.32,13.32,0,0,0-5.65,1.27l8.11-4a5.52,5.52,0,0,0-3,.55,57.55,57.55,0,0,1,7.75-3,16.5,16.5,0,0,0-5.8.68,11,11,0,0,0,3.34-1.25,4.83,4.83,0,0,0-3.76.59l2.69-.41a9.72,9.72,0,0,0-2.49,1.31l5.7.88a161.32,161.32,0,0,1-18.63,7.78,128.21,128.21,0,0,0,14.91-3.14,31.49,31.49,0,0,1-10.93,5.32c4.43-1.43,8.93-2.66,13.47-3.69l-11.91,3.18A78.76,78.76,0,0,1,441,114.57a54.53,54.53,0,0,0-6.38,3.12l6.74-1.19a19.28,19.28,0,0,1-7.48,3.3l10.22-2.07a149.34,149.34,0,0,1-15.52,4.32,51.09,51.09,0,0,0,11.14-5.56,18.77,18.77,0,0,0-9.09,3.33l4.77-.84a93.36,93.36,0,0,1-8.67,7.06,77.79,77.79,0,0,1,11.89-8c-1.33-.7-3,0-4.27.7-5.3,3-9.84,7.11-14.32,11.2a19.42,19.42,0,0,1,6.19-9.2l-5.14,3.15a17.69,17.69,0,0,1,7.25-5.11,41.62,41.62,0,0,1-5.09,6.22,54.7,54.7,0,0,0,6.55-3.69l-4.95,2.92a5.23,5.23,0,0,1,3.23-4.62l-3.94,4.08,3.28-2.24-1.55,1.71,4.09-3.41a39.09,39.09,0,0,0-8.59,6.95c3.12-.42,6.28-1.71,8.14-4.24l-10.42,10.6a30.63,30.63,0,0,1,6.4-9.08,29.16,29.16,0,0,0-7.5,10.66l11.39-11-10.73,11.27a71.71,71.71,0,0,1,15.94-17.08c2.88-2.21,6.24-4.29,9.86-4a1.43,1.43,0,0,1,.71.2c.53.38.32,1.27-.18,1.69a8.46,8.46,0,0,1-1.77.84c-1.43.71-2.2,2.29-3.43,3.3s-3.19,1.45-4.91,1.88A34.85,34.85,0,0,0,424,126.51a50.31,50.31,0,0,1,23.51-8.42c-1.82-2.23-5.22-2.09-8.08-1.75l6.41-1.93a13.2,13.2,0,0,0-4-1.09,12.9,12.9,0,0,1,3.66-.94,33.55,33.55,0,0,0-9.48,1.68l3.08-.4-6.71,3.72,5.79-2.17-5.58,1.29,5.18-1.64-6.45,2.68a20.74,20.74,0,0,1,6.49-3.85,19.82,19.82,0,0,1-4.27.62l6-4a61.09,61.09,0,0,1-9.72,5.4l7.38-2.53a9.15,9.15,0,0,0-3.15.62l7-3.82L438.91,111l4.48-.35a8.84,8.84,0,0,0-2.31,1.41,2.36,2.36,0,0,0,1.85-.48,33.27,33.27,0,0,0-10.61,4.12,10.1,10.1,0,0,0,3.38.06l-5.13,2.48" transform="translate(-90.98 -67.65)"/><path class="cls-2" d="M441.84,103.62a52.69,52.69,0,0,1-10.61,1.14l.56,2.07a23.65,23.65,0,0,1,11.62-1.38l-.17-2.06a21.79,21.79,0,0,1-9.61,1.68l.18,2.21a15.27,15.27,0,0,1,8.63-.24l.2-2.19c-.62.18-6,1.73-6.15,1.41l-1.56,1.53,2.07-.07a1.48,1.48,0,0,0,1.55-1.52l-1.39-10.74c-.12-.93-1.56-.8-2.11-.55l-16.71,7.74,1.64,1.66a79.88,79.88,0,0,1,14.53-7.85l-1.64-1.66c-5.14,3.26-11.38,3.24-14.61,9-.68,1.2,1.35,1.5,2.06,1.13a53.47,53.47,0,0,1,14.16-5c1.22-.26,1.7-2,.19-2.2a14.81,14.81,0,0,0-9.77,1.86c-1.7,1-.18,2.67,1.32,1.86A36.16,36.16,0,0,1,435.36,98l-1.73-.68c.29,2.41-6.95,4.75-8.4,5.29s-1.65,2.43.18,2.21a31.4,31.4,0,0,0,9-2.44c.86-.37,1.16-1.56.16-2a12.75,12.75,0,0,0-9.37-.24c-1.74.6-1.26,2.66.57,2.15l5-1.4-.95-2-6.52,3.49c-1.15.62-.91,2.29.56,2.06a30.8,30.8,0,0,0,4.53-1l-.95-2-2.61,1.07,1.32,1.86,10.2-4.6L434.22,99l-.82,1.19,1.89,1.42a3.43,3.43,0,0,1,1,3.43l2.92-.48v-1.69l-2.92.48a6.22,6.22,0,0,1,.8,4.46l2.92-.48.7-2.9-2.21-1.21a5.41,5.41,0,0,1-4.29,2.63l1.76,1a7,7,0,0,1,.87-3.79c.29-.67-.28-1.22-.92-1.32a8,8,0,0,0-6.18,1.42c-1.3.87.14,2.14,1.27,1.8a31.08,31.08,0,0,0,6.58-2.82c1.4-.81.58-2.56-.95-2a45.6,45.6,0,0,0-7.93,3.67c-1.69,1-.18,2.69,1.32,1.86a34.67,34.67,0,0,1,5.11-2.33c1.35-.49,1.63-2.34-.18-2.21a23.08,23.08,0,0,0-11.4,3.88c-1.53,1,.47,2.19,1.64,1.66l4.87-2.23-1.32-1.86-3.8,2.16c-1.71,1-.19,2.62,1.33,1.86a12.77,12.77,0,0,0,4.3-3.38c.7-.82-.22-1.74-1.12-1.62a32.53,32.53,0,0,0-8.16,2.2c-1.64.69-.47,2.29,1,2l4.52-.89-1.69-1.28A5,5,0,0,1,423,106.9c-1.13.94.05,2.26,1.27,1.8l9-3.35c1.44-.54,1.57-2.14-.18-2.21A18.84,18.84,0,0,0,420.75,107c-1.59,1.16.73,2.34,2,1.46a22.66,22.66,0,0,1,7-3.5l-1.76-1-1.86,2.75,1.33,1.86L433.8,105c1.24-.69.87-2.09-.56-2.07a23.81,23.81,0,0,0-9.81,2.24,1.07,1.07,0,0,0,.55,2.06,67,67,0,0,0,8.85-2l-.95-2a58.35,58.35,0,0,1-6.82,3c-1.72.62-1.27,2.58.58,2.14l6.73-1.59L431.1,105a29.68,29.68,0,0,1-5.9,4.23c-1.72.94-.18,2.67,1.33,1.86l13.79-7.41c1.16-.62.93-2.3-.55-2.07a34.1,34.1,0,0,0-13,4.74c-1.37.85-.62,2.48,1,2a38,38,0,0,1,7.15-1.47l-.56-2.07-9,4.43c-1.77.87-.2,2.59,1.33,1.86a28.58,28.58,0,0,1,7.95-2.53l-.55-2.07q-4.26,2.22-8.57,4.32l2.13.84c.12-1.43,5.24-2.92,6.38-3.29l4.71-1.5c1.78-.57,1.26-2.56-.57-2.15a62.78,62.78,0,0,0-11.8,4l1.32,1.86a48.54,48.54,0,0,1,8.72-4.11c1.37-.49,1.63-2.32-.17-2.21a57.74,57.74,0,0,0-14.56,2.75c-1.78.58-1.25,2.49.58,2.14l12.11-2.27-.95-2a84.27,84.27,0,0,0-8.58,4.36c-1.21.71-.89,2.1.55,2.07a38.4,38.4,0,0,0,6.6-.71l-.57-2.15L426,109.9l.95,2a21.65,21.65,0,0,0,3.26-2.39c.93-.83.3-1.92-.87-1.87a12.5,12.5,0,0,0-5.17,1.3c-1.8.86-.2,2.51,1.33,1.86l3.24-.88c1.21-.17,2.48-2.08.59-2.26a22.37,22.37,0,0,0-6.53.32l1.27,1.8a6.05,6.05,0,0,1,2.75-1.7l-1.32-1.86L423,107.64c-1.43.83-.6,2.44.95,2l4.07-1.15c1.42-.4,1.57-2.46-.18-2.21a6.78,6.78,0,0,0-4.16,1.87c-.73.68-.59,1.7.49,1.86a24.45,24.45,0,0,1,4.41.89l-.41-1.52-2.48,1.51.18,2.21L437,109.19c1.73-.62,1.27-2.62-.57-2.15a88.23,88.23,0,0,0-11.31,3.77l1.64,1.66a25.11,25.11,0,0,1,6.89-4.15c1.61-.65.51-2.36-.95-2a30.57,30.57,0,0,0-10.54,4.85l2,1.46a16.83,16.83,0,0,1,8.95-3.9l-.56-2.06a18.73,18.73,0,0,0-7.95,5.64c-.76.89.26,1.63,1.12,1.62a28.85,28.85,0,0,0,10.35-2l-1.33-1.86a26.22,26.22,0,0,1-8.8,3.23l1.52,1.55a30.37,30.37,0,0,1,7.88-5.71c1-.5,1.11-1.9-.18-2.06a10.32,10.32,0,0,0-6.13,1,1.07,1.07,0,0,0,.55,2.07l8.09-.92-.55-2.07-11,4.22c-1.56.6-.53,2.53.95,2l8.93-3.21c1.76-.63,1.27-2.46-.58-2.14a13.68,13.68,0,0,0-7.14,3.42c-1.36,1.19.42,2.22,1.64,1.66a51.1,51.1,0,0,1,6.09-2.36l-.95-2-8,3.8,1.33,1.86a24.62,24.62,0,0,1,5-2l-.95-2a52.71,52.71,0,0,0-5.7,2.79c-1.41.8-.58,2.55,1,2l7.66-2.72-1.26-1.81L430,113.41c-1.09.71-.2,2,.87,1.86a38.41,38.41,0,0,0,5.11-.76l-.58-2.14a57,57,0,0,0-9.89,3.95c-1.51.77-.55,2.4.95,2L440,114.69c1.47-.39,1.56-2.3-.18-2.2a122.27,122.27,0,0,0-15.25,1.83l1,2a24.14,24.14,0,0,1,7.91-2.34l-1.29-1.34-3.16,3.11,1.51,1.56a21.07,21.07,0,0,1,8-5.61c1.61-.65.51-2.36-.95-2a104.06,104.06,0,0,0-11.28,3.46c-1.7.64-1.26,2.68.58,2.15l13-3.77-1.27-1.8a75.66,75.66,0,0,1-7.45,4.68c-1.74.95-.2,2.57,1.32,1.86a16.58,16.58,0,0,0,4-2.56c.95-.81.28-1.93-.87-1.86a19.19,19.19,0,0,0-6.42,1.47l1.33,1.86,8.11-4c1.28-.63.83-2.12-.56-2.07a8,8,0,0,0-3.39.62l.95,2a66.38,66.38,0,0,1,7.38-2.82c1.48-.47,1.54-2.18-.18-2.21a22.69,22.69,0,0,0-6.2.74l.58,2.14a17.45,17.45,0,0,0,3.71-1.39c1-.47,1.09-1.91-.18-2a8.41,8.41,0,0,0-4.91.77,1.07,1.07,0,0,0,.56,2.07l2.69-.4-.55-2.07a9.56,9.56,0,0,0-2.49,1.31c-.92.57-1.16,1.85.17,2.05l5.71.88-.18-2.06a172.57,172.57,0,0,1-18.26,7.65c-1.33.46-1.62,2.49.18,2.2a148.08,148.08,0,0,0,15.31-3.2l-1.27-1.8a33.23,33.23,0,0,1-10.24,5l.58,2.14c4.44-1.41,8.92-2.64,13.47-3.69l-.58-2.14-11.91,3.18,1,2a89.74,89.74,0,0,1,11.41-4.43l-.95-2c-2.18.94-4.29,2-6.37,3.12-1.54.86-.53,2.27.95,2l6.74-1.19-1.27-1.81a21,21,0,0,1-6.79,3c-1.83.45-1.23,2.51.58,2.14l10.22-2.07-.58-2.14c-5.11,1.69-10.27,3.13-15.52,4.32l.57,2.14a62.29,62.29,0,0,0,11.84-5.9c1.06-.68.21-2-.87-1.87a24.32,24.32,0,0,0-10.18,3.74c-1.42.9.23,2,1.27,1.8l4.77-.84-1.26-1.8c-2.79,2.5-5.67,4.85-8.68,7.06l1.95,1.46A85.16,85.16,0,0,1,439.27,119c1-.56,1.06-1.79-.18-2.05-7.15-1.49-15.39,8-20.06,12.29l2.38.94a20.33,20.33,0,0,1,5.77-8.68c1.28-1.14-.42-2.41-1.64-1.66L420.4,123l1.89,1.42a18.2,18.2,0,0,1,6.69-4.67l-1.89-1.42a51.69,51.69,0,0,1-5.1,6.23c-1.13,1.18,1,1.84,1.89,1.41a72.87,72.87,0,0,0,6.56-3.69c1.64-1,.16-2.74-1.33-1.86l-4.95,2.92,2.14.84,2.42-3.6-1.89-1.41-3.95,4.07c-1.28,1.33,1.32,1.82,2.2,1.22l3.29-2.24L426.16,121l-1.55,1.7c-1.18,1.3,1.29,2,2.21,1.22l4.09-3.41c1.34-1.1-.44-2.41-1.64-1.66a47.25,47.25,0,0,0-9.15,7.4c-1,1,.69,1.7,1.51,1.55a14.61,14.61,0,0,0,9.08-4.83c1.25-1.44-1.52-1.92-2.46-1l-10.41,10.6,2.62.69a34,34,0,0,1,6.23-8.8c1.17-1.21-1.29-2.08-2.21-1.21a34.16,34.16,0,0,0-7.92,11.18c-.6,1.37,1.65,1.64,2.38.94l11.39-11-2.21-1.22-10.73,11.28,2.46,1A75.17,75.17,0,0,1,428.27,125c2.63-2.69,10.16-10.82,14.28-9.78,1.65.42.43-.13-.19.51a14.17,14.17,0,0,1-1.25.9c-2.11,1.72-3.1,3-5.91,3.88a48.73,48.73,0,0,0-11.86,5.08l1.64,1.66a50.53,50.53,0,0,1,22.42-8c1-.1,2.19-1.1,1.21-2-2.55-2.4-5.75-2.36-9.07-2l.18,2.21,6.41-1.93c.92-.27,1.82-1.6.54-2.1a20.67,20.67,0,0,0-4.34-1.18l-.2,2.2a12.22,12.22,0,0,1,3.26-.89c1.6-.25,2.25-2.38.21-2.27a40.9,40.9,0,0,0-9.87,1.75c-1.39.43-1.59,2.44.18,2.21l3.08-.4-.55-2.07-6.71,3.72c-1.42.79-.57,2.57.95,2l5.78-2.17c1.71-.64,1.29-2.58-.57-2.15l-5.57,1.3.57,2.14,5.18-1.64-.95-2-6.45,2.68,1.64,1.66a23.8,23.8,0,0,1,6.18-3.65c1.62-.67.49-2.33-.95-2a16.52,16.52,0,0,1-3.88.56l.87,1.87,6-4.05c1.63-1.1-.71-2.28-2-1.46a70.69,70.69,0,0,1-9.41,5.2c-1.52.7-.54,2.52.95,2l7.38-2.54c1.35-.46,1.62-2.4-.18-2.21a14.78,14.78,0,0,0-3.55.69l1,2,7-3.82c1.72-1,.18-2.65-1.33-1.86l-2.13,1.11c-1.22.64-.89,2.18.55,2.07l4.48-.36-.55-2.06a15.45,15.45,0,0,0-2.63,1.61c-1.06.76-.2,1.91.87,1.86a5,5,0,0,0,2.62-.68c1.54-.79.54-2.35-.95-2a39.83,39.83,0,0,0-11,4.27c-.91.52-1.15,1.91.18,2a15.19,15.19,0,0,0,3.75.07l-.55-2.06-5.13,2.48c-1.78.86-.21,2.6,1.32,1.86l5.13-2.48a1.07,1.07,0,0,0-.55-2.07l-3,0,.18,2a36.8,36.8,0,0,1,10.22-4l-.94-2-1.08.28.87,1.87,2-1.21c1.24-.63.88-2.18-.55-2.07l-4.48.36.55,2.06,2.14-1.11L440.38,109l-7,3.82c-1.46.8-.57,2.45,1,2l2.76-.55-.18-2.21-7.37,2.53.94,2a75.7,75.7,0,0,0,10-5.6l-2-1.46-6,4c-1.08.72-.19,1.94.87,1.86a30.56,30.56,0,0,0,4.67-.68l-.95-2a26.39,26.39,0,0,0-6.81,4c-1.45,1.17.47,2.15,1.64,1.66l6.45-2.68c1.57-.64.53-2.47-.94-2l-5.18,1.64c-1.78.56-1.26,2.57.57,2.14l5.57-1.29-.57-2.15-5.78,2.18.94,2,6.71-3.72c1.16-.63.93-2.25-.55-2.06l-3.08.39.18,2.21a38.38,38.38,0,0,1,9.08-1.62l.21-2.27a21.14,21.14,0,0,0-4,1c-1.09.4-1.82,1.94-.2,2.2a11.3,11.3,0,0,1,3.66,1l.54-2.1-6.42,1.93c-1.4.42-1.58,2.38.18,2.21,2.51-.26,5.1-.37,7.08,1.49l1.22-2a55.19,55.19,0,0,0-24.6,8.82c-1.44.94.45,2.41,1.64,1.66,5.48-3.45,12.24-3.92,17.17-8,1.39-1.13,7.61-4.46,3.77-6.6s-10.55,3-13.34,5.25a74.79,74.79,0,0,0-14.87,16.29c-1.1,1.62,1.54,1.93,2.46,1l10.73-11.28c1.16-1.22-1.3-2.09-2.21-1.21L417,134l2.37.94a30.82,30.82,0,0,1,7.09-10.14l-2.21-1.21a35.85,35.85,0,0,0-6.56,9.35c-.79,1.6,1.94,1.38,2.62.69L430.71,123l-2.46-1a11.44,11.44,0,0,1-7.19,3.66l1.51,1.56a41.26,41.26,0,0,1,8-6.51L429,119.06l-4.1,3.41,2.2,1.21,1.56-1.71c1.25-1.36-1.32-1.81-2.21-1.21L423.13,123l2.2,1.21,3.95-4.08c1.12-1.15-1-1.89-1.89-1.41a7.14,7.14,0,0,0-4,5.64c-.16,1.09,1.49,1.23,2.14.84l4.95-2.92-1.33-1.86c-2.13,1.35-4.3,2.56-6.55,3.69l1.89,1.41a51.51,51.51,0,0,0,5.09-6.22c.93-1.33-.91-1.83-1.89-1.41a22,22,0,0,0-7.82,5.56c-1.06,1.15,1,2,1.89,1.41l5.14-3.15-1.64-1.66a23.25,23.25,0,0,0-6.61,9.73c-.5,1.39,1.6,1.64,2.38.93,3.53-3.21,11.91-12.59,17.13-11.51l-.18-2a90.78,90.78,0,0,0-12.21,8.16c-1.56,1.24.74,2.35,1.95,1.46a110.93,110.93,0,0,0,8.68-7.06c1.19-1.07-.06-2-1.26-1.8l-4.77.83,1.26,1.8a19.2,19.2,0,0,1,8-2.92l-.87-1.86A55.13,55.13,0,0,1,428.27,121c-1.71.64-1.28,2.57.57,2.14q7.88-1.78,15.53-4.32c1.77-.59,1.25-2.51-.58-2.14l-10.22,2.07.58,2.14a25.33,25.33,0,0,0,8.17-3.64c1.4-.92-.22-2-1.27-1.8l-6.74,1.19.95,2c2.09-1.15,4.19-2.18,6.38-3.12,1.55-.67.53-2.46-.95-2a92.89,92.89,0,0,0-12.16,4.71c-1.55.73-.54,2.4,1,2L441.39,117c1.8-.48,1.23-2.56-.58-2.14-4.54,1-9,2.28-13.47,3.69-1.76.55-1.23,2.67.58,2.14a37.8,37.8,0,0,0,11.62-5.67c1.29-.92-.13-2.1-1.27-1.8a138.09,138.09,0,0,1-14.51,3.08l.18,2.21a182.12,182.12,0,0,0,19-7.92c1-.5,1.07-1.87-.18-2.06l-5.7-.87.18,2a9.89,9.89,0,0,1,2.49-1.31,1.07,1.07,0,0,0-.55-2.07l-2.7.41.56,2.07,2.62-.4-.18-2-3,1.11c-1.79.51-1.24,2.6.58,2.14a18.75,18.75,0,0,1,5.4-.61l-.18-2.21a76.8,76.8,0,0,0-8.13,3.1c-1.53.69-.53,2.51.95,2l2.61-.49-.56-2.07-8.11,4c-1.8.89-.2,2.48,1.33,1.86a11.22,11.22,0,0,1,4.87-1.06l-.87-1.87a9.61,9.61,0,0,1-3.34,2.16l1.32,1.86a80.68,80.68,0,0,0,8.09-5.08c1.28-.91-.12-2.14-1.26-1.81l-13,3.77.58,2.15a105,105,0,0,1,11.28-3.47l-.95-2a24,24,0,0,0-9.14,6.5c-.88,1,.59,1.89,1.51,1.56a8.53,8.53,0,0,0,5.38-4.85c.37-.83-.55-1.43-1.29-1.34a29.14,29.14,0,0,0-9.44,2.75c-1.61.77-.49,2.26.95,2a115.22,115.22,0,0,1,14.46-1.71l-.18-2.21-13.52,3.62.95,2a53.63,53.63,0,0,1,9.15-3.67c1.79-.53,1.24-2.53-.58-2.14a21.05,21.05,0,0,1-4.31.63l.87,1.87,4.06-2.68c1.29-.84-.12-2.2-1.26-1.8l-7.66,2.73,1,2a51.81,51.81,0,0,1,5.7-2.79c1.58-.65.52-2.4-.95-2a28.66,28.66,0,0,0-5.72,2.24c-1.75.91-.19,2.59,1.33,1.86l8-3.8c1.52-.72.55-2.47-.95-2a56,56,0,0,0-6.83,2.64l1.64,1.66a11.75,11.75,0,0,1,5.76-2.74l-.58-2.14-8.93,3.21.95,2,11-4.22a1.07,1.07,0,0,0-.56-2.06l-8.09.92.55,2.06,3.85-.62-.18-2a34.67,34.67,0,0,0-9,6.61c-1,1,.71,1.7,1.52,1.55a28,28,0,0,0,9.55-3.51c1.75-1,.2-2.43-1.33-1.86a24.6,24.6,0,0,1-8.81,1.58l1.12,1.62a15.89,15.89,0,0,1,6.83-4.75,1.07,1.07,0,0,0-.56-2.07,20.88,20.88,0,0,0-11.12,4.71c-1.55,1.27.75,2.32,2,1.46a26.26,26.26,0,0,1,9.16-4.17l-.95-2a27.28,27.28,0,0,0-7.53,4.55c-1.43,1.2.45,2.15,1.64,1.66A82,82,0,0,1,437,109.19l-.57-2.15L425.33,111c-1.34.48-1.63,2.38.18,2.21a6.54,6.54,0,0,0,5.16-2.81,1,1,0,0,0-.41-1.52,41.28,41.28,0,0,0-5.08-1.07l.5,1.85,2-1.06-.18-2.2-4.08,1.14.95,2,2.45-1.42c1.75-1,.21-2.47-1.32-1.86a10.63,10.63,0,0,0-3.39,2.11c-1.18,1,.06,2,1.27,1.8a13.26,13.26,0,0,1,5-.23l.6-2.26a18.37,18.37,0,0,0-4.79,1.3l1.33,1.86,3.62-.88-.87-1.87a13.09,13.09,0,0,1-2.63,2c-1.39.86-.62,2.45.95,2l5.38-1.52c1.82-.51,1.24-2.49-.57-2.15a32.62,32.62,0,0,1-5.81.59l.55,2.06a83.4,83.4,0,0,1,8.59-4.36c1.64-.72.47-2.27-.95-2l-12.12,2.27.58,2.14A54.54,54.54,0,0,1,436,106.46l-.18-2.21a52.54,52.54,0,0,0-9.47,4.4c-1.71,1-.22,2.55,1.32,1.86a59,59,0,0,1,11.05-3.69l-.57-2.15c-3.46,1.11-13.06,2.14-13.47,7.12-.09,1.12,1.43,1.18,2.14.84q4.32-2.1,8.57-4.32c1.17-.61.91-2.3-.55-2.06a34.12,34.12,0,0,0-9.5,2.94l1.33,1.86,9-4.43a1.07,1.07,0,0,0-.56-2.07,43.07,43.07,0,0,0-7.93,1.61l1,2a30.37,30.37,0,0,1,11.45-4.33l-.55-2.07-13.8,7.42,1.33,1.86a32.76,32.76,0,0,0,6.53-4.63c1.14-1,0-2.09-1.26-1.8l-6.74,1.59.58,2.14a64.94,64.94,0,0,0,7.56-3.29c1.49-.76.57-2.45-.95-2a59.89,59.89,0,0,1-8.05,1.88l.55,2.07a19.71,19.71,0,0,1,8.28-1.82l-.56-2.07-6.38,3.57c-1.73,1-.2,2.55,1.33,1.86a5.17,5.17,0,0,0,3.47-4.78c.08-.91-1.07-1.2-1.76-1a29.27,29.27,0,0,0-8.38,4.19l2,1.46a15.4,15.4,0,0,1,10.13-3l-.18-2.21-9,3.35,1.27,1.8a7.94,7.94,0,0,0,2.9-4.36c.3-1.1-.79-1.46-1.69-1.28l-4.51.89.95,2a25.27,25.27,0,0,1,6.61-1.78l-1.12-1.62-3.17,2.48,1.33,1.86,3.79-2.16c1.73-1,.21-2.56-1.32-1.86l-4.87,2.22,1.64,1.66a18.78,18.78,0,0,1,9.23-3.06l-.18-2.21a40.44,40.44,0,0,0-5.86,2.62l1.32,1.86a42.05,42.05,0,0,1,7.18-3.39l-.95-2a26.33,26.33,0,0,1-5.82,2.54l1.26,1.8,3.26-.64L434,102.6a11.51,11.51,0,0,0-1,4.38c0,1,1.05,1.12,1.76,1a9.46,9.46,0,0,0,6.18-3.81c1.09-1.43-1.28-1.91-2.21-1.21-1.82,1.37-2.46,2.93-1.64,5.14.47,1.25,2.83.83,2.93-.48a9.26,9.26,0,0,0-.85-5.06c-.57-1.27-2.68-.8-2.93.48a3.59,3.59,0,0,0,.06,2.29c.3,1.35,2.83.73,2.92-.48.29-3.9-2.88-8.08-6.39-4.22-1.09,1.2,1,1.86,1.89,1.41a3.82,3.82,0,0,0,2.45-3.23c.2-1.15-1.5-1.13-2.14-.84l-10.19,4.6c-1.82.82-.21,2.48,1.32,1.86l2.61-1.07c1.57-.64.53-2.45-.95-2a18.31,18.31,0,0,1-3.74.87l.56,2.07,6.51-3.49c1.48-.79.57-2.43-.95-2l-5,1.39.57,2.15a9.83,9.83,0,0,1,7.16.15l.16-2a24.71,24.71,0,0,1-7.49,2l.18,2.2c3.57-1.32,11.31-3.28,10.71-8.21-.09-.75-1.22-.8-1.73-.68a38.47,38.47,0,0,0-9.89,3.71l1.32,1.86a11.58,11.58,0,0,1,7.49-1.48l.19-2.19A56.57,56.57,0,0,0,419,103.07l2.06,1.14c2.66-4.75,9.44-5.2,13.77-7.95,1.57-1-.49-2.14-1.64-1.66A84,84,0,0,0,418,102.85c-1.51,1,.47,2.21,1.64,1.66l16.72-7.74-2.11-.54L435.66,107l1.55-1.53-2.06.07c-.64,0-1.88.67-1.56,1.52,1.23,3.18,7.52.57,9.62-.05,1.25-.36,1.67-1.83.2-2.19a18.18,18.18,0,0,0-10.18.34c-1.5.46-1.52,2.14.18,2.21a25.55,25.55,0,0,0,11.15-2.09,1.05,1.05,0,0,0-.18-2.06A28.39,28.39,0,0,0,430.46,105c-1.41.54-.73,2.07.56,2.06a55.91,55.91,0,0,0,11.39-1.27c1.84-.39,1.24-2.53-.57-2.14Z" transform="translate(-90.98 -67.65)"/><path class="cls-2" d="M489.16,125.42l0,1.06a32.42,32.42,0,0,0,1.73-6.18,28.33,28.33,0,0,0-.85,8.55c1.46-5.36,2.94-10.92,2.08-16.41a3.19,3.19,0,0,0-.69-1.75,90.27,90.27,0,0,0-3.58,15.07,57.71,57.71,0,0,0,3.4-14.13,115.82,115.82,0,0,0,.08-18.44c.28,3.15.46,6.3.56,9.46a29.18,29.18,0,0,1-.74,8.95c-1.07,3.71-3.43,6.91-4.84,10.5A72.67,72.67,0,0,0,489,89.48a16.11,16.11,0,0,0-1.87-6.17l1.21-1.77c-3.55,3.27-8.08,5.28-11.86,8.28-.9.72-1.76,1.5-2.62,2.27A39.5,39.5,0,0,0,467,99.42a4.25,4.25,0,0,1,1.65-3.09c3.62-3.51,8.24-5.87,11.78-9.47.53-.55,1-1.13,1.6-1.66a21.07,21.07,0,0,1,6.6-4l-5.06,4.28c-.86.73-1.72,1.46-2.62,2.13-2.85,2.13-6.12,3.72-8.67,6.21a33.24,33.24,0,0,0-5.42,7.86,26.82,26.82,0,0,1,7.8-9.16c1-.75,2.11-1.42,3.15-2.16,1.34-.94,2.61-2,3.88-3-2.93,2.22-5.83,4.47-8.55,6.93a25.61,25.61,0,0,0-3.06,3.19,15.22,15.22,0,0,0-2.81,6.14c.75-3.05,2.95-5.51,5.08-7.82,1.53-1.66,3.07-3.32,4.62-5,.89-1,1.79-1.9,2.73-2.8a76.91,76.91,0,0,1,7.08-5.78,3.06,3.06,0,0,1,1.78-.81A23.22,23.22,0,0,1,483.67,86c-.94.57-1.94,1-2.91,1.51a21.75,21.75,0,0,0-7.62,6.64,1.3,1.3,0,0,1,.25-1c1.64-2.74,4.22-4.77,6.83-6.6,1.77-1.25,3.59-2.43,5.45-3.56,1.15-.7,2.51-1.4,3.8-1a.81.81,0,0,1-.09,1.08,3,3,0,0,1-1.05.56A16.33,16.33,0,0,0,485.72,85l-3.24,2c-1.3.79-2.61,1.59-3.83,2.51a33.54,33.54,0,0,0-4,3.7,31.64,31.64,0,0,0-5.69,7.73L466,98.55a70.32,70.32,0,0,1,21.69-18.21,1.46,1.46,0,0,1,1.26-.23,1.47,1.47,0,0,1,.62,1c2.84,10.89,4.8,22.1,4.57,33.35s-2.73,22.61-8.35,32.36" transform="translate(-90.98 -67.65)"/><path class="cls-2" d="M487.71,125.81l0,1.06c0,.74,2.68-.06,2.88-.63a42.46,42.46,0,0,0,1.73-6.17c.16-.79-2.69-.31-2.86.47a34.89,34.89,0,0,0-.87,8.7c0,.69,2.71,0,2.88-.62,1.35-5,4.27-13.39,1.4-18.32-.4-.7-2.66-.06-2.88.62A101.25,101.25,0,0,0,486.46,126c-.14.86,2.62.23,2.87-.47,3.88-10.75,4-21.44,3.49-32.72l-2.9.78c.44,5.33,1.24,11.2.24,16.5-.84,4.43-3.48,8.18-5.25,12.25l2.87-.47a75.69,75.69,0,0,0,3.45-21.8,67.15,67.15,0,0,0-.77-11c-.26-1.62-.84-3.14-1.15-4.73-.37-2-.72-1.3.37-2.89.67-1-2.23-.22-2.65.14-7.21,6.18-15.61,9.91-21.31,17.88l2.76-.3c.72-4.22,6.78-7,9.95-9.48,3.66-2.87,6.34-6.14,10.76-8.07l-1.84-.33c-4.48,3.79-9.13,7-13.82,10.51-3.63,2.69-5.89,6.24-8.06,10.14-.28.49,2.43.3,2.86-.47,3.56-6.36,9-9.54,14.52-14,1.19-1-1.69-.62-2.25-.19-6,4.53-12.7,9-14.72,16.59-.2.75,2.62.29,2.87-.47,1.59-4.82,5.61-8.38,9-12,2.85-3,6.93-8.33,11-9.42l-1.47-.45c-4.67,5.06-11.2,7-15.47,12.62l2.76-.3c1.06-3.94,6-7.07,9.47-9.06,1.72-1,5.07-2.43,1.47-.44-1.42.78-2.78,1.67-4.15,2.52a38.36,38.36,0,0,0-13.87,14.27l2.8-.75c-.52-.42-1.93-1.18-2.16-1.76-.45-1.16.2-1.42,1.35-2.75a67.41,67.41,0,0,1,9.54-9q2.64-2.07,5.48-3.87l2.6-1.58c1.23-.2,1.73.44,1.5,1.93,1.73,3.45,2.08,9.08,2.69,12.87,2.8,17.32,1.74,35.28-6.91,50.86-.28.5,2.44.31,2.87-.47C497.4,128.31,497,107,492.58,87.13c-.43-1.92-.52-6.85-2.68-7.66-1.65-.62-4,1.16-5.23,1.85a73.37,73.37,0,0,0-20,17.3c-.11.13-.21.3,0,.44l2.91,2.38c.63.52,2.44-.09,2.79-.75a36.5,36.5,0,0,1,13.25-13.61c1.75-1.08,5.6-2.26,6.76-3.85.46-.62.84-.71.55-1.63-.07-.19-.37-.25-.53-.26-3.37-.2-5.83,1.47-8.6,3.28-3.49,2.27-8.93,5.4-10.09,9.72-.24.88,2.46.08,2.76-.31,4.19-5.48,10.81-7.57,15.47-12.62.68-.74-1.23-.52-1.47-.46-4.36,1.17-8.34,5.46-11.42,8.57-4.13,4.16-9.28,8.67-11.16,14.37l2.87-.47c1.95-7.34,8.35-11.56,14.1-15.93l-2.25-.19C474.79,92,469.22,95.24,465.47,102l2.86-.47a31.94,31.94,0,0,1,11.26-12A113.68,113.68,0,0,0,490,81.17c.8-.68-1.61-.44-1.84-.34-4.75,2.07-7.51,5-11.42,8.23-3.37,2.78-10.31,5.84-11.12,10.6-.16.92,2.46.11,2.75-.3,5.66-7.91,14.15-11.75,21.32-17.89l-2.65.14-1.21,1.77a.32.32,0,0,0-.12.32c2.67,5.35,2.72,12.18,2.61,18a74.81,74.81,0,0,1-3.4,20.58c-.23.75,2.56.24,2.87-.47,2-4.7,4.92-8.82,5.49-14,.53-4.94,0-10.1-.45-15-.05-.66-2.94-.1-2.9.78.54,11.13.36,21.82-3.46,32.41l2.87-.47a101.25,101.25,0,0,1,3.57-15.07l-2.88.62c2.87,5,0,12.91-1.38,18l2.89-.62a34.28,34.28,0,0,1,.83-8.4l-2.86.47a43.77,43.77,0,0,1-1.73,6.17l2.88-.62,0-1c0-.62-2.94-.13-2.9.77Z" transform="translate(-90.98 -67.65)"/><path class="cls-2" d="M397.92,125.55l0,1.06a32.93,32.93,0,0,1-1.86-6.14,28.59,28.59,0,0,1,1,8.53c-1.59-5.33-3.19-10.85-2.44-16.36a3.16,3.16,0,0,1,.65-1.77,90,90,0,0,1,3.91,15,58.06,58.06,0,0,1-3.72-14A115.81,115.81,0,0,1,395,93.37q-.31,4.72-.35,9.47a29.15,29.15,0,0,0,.94,8.94c1.14,3.68,3.58,6.83,5.07,10.38a72.8,72.8,0,0,1-3.39-32.55A16.4,16.4,0,0,1,399,83.4l-1.24-1.74c3.63,3.19,8.19,5.1,12,8,.92.7,1.8,1.45,2.67,2.21a38.94,38.94,0,0,1,7,7.18A4.22,4.22,0,0,0,417.74,96c-3.7-3.43-8.37-5.69-12-9.21-.55-.54-1.07-1.1-1.64-1.62a21.23,21.23,0,0,0-6.68-3.82l5.15,4.17c.87.71,1.75,1.42,2.67,2.08,2.89,2.06,6.19,3.58,8.79,6a32.84,32.84,0,0,1,5.6,7.74,26.73,26.73,0,0,0-8-9c-1-.73-2.14-1.38-3.2-2.09-1.36-.91-2.65-1.92-3.94-2.92,3,2.14,5.93,4.33,8.7,6.74a24.93,24.93,0,0,1,3.13,3.12,15.13,15.13,0,0,1,2.94,6.07c-.82-3-3.07-5.44-5.25-7.71-1.57-1.62-3.14-3.24-4.73-4.86-.91-.93-1.83-1.85-2.79-2.74a78.68,78.68,0,0,0-7.21-5.62,3.06,3.06,0,0,0-1.8-.77,23.54,23.54,0,0,0,5,4.37c.95.54,2,1,2.94,1.44a21.92,21.92,0,0,1,7.77,6.47,1.33,1.33,0,0,0-.28-1,22.86,22.86,0,0,0-7-6.44c-1.8-1.21-3.65-2.36-5.53-3.44-1.17-.67-2.54-1.34-3.82-.91a.8.8,0,0,0,.11,1.07,2.79,2.79,0,0,0,1.06.53,16.89,16.89,0,0,1,2.65,1.34L403.75,87a43.39,43.39,0,0,1,3.88,2.43,34.38,34.38,0,0,1,4.12,3.6,32.23,32.23,0,0,1,5.86,7.6l2.85-2.44a70.16,70.16,0,0,0-22.09-17.72,1.38,1.38,0,0,0-1.26-.2,1.44,1.44,0,0,0-.6,1c-2.6,11-4.31,22.2-3.83,33.44s3.22,22.54,9.06,32.17" transform="translate(-90.98 -67.65)"/><path class="cls-2" d="M396.47,125.94v1l2.89-.77a42.57,42.57,0,0,1-1.86-6.14l-2.9.78a34.59,34.59,0,0,1,1,8.53l2.9-.78c-1.46-4.93-4.52-13.07-1.81-18l-2.88.62a101,101,0,0,1,3.91,15l2.89-.77c-4.09-10.6-4.49-21.26-4.19-32.49,0-.58-2.85-.13-2.9.78-.31,5.16-.84,10.65,0,15.77.79,4.8,3.66,8.69,5.65,13,.34.74,3.13-.07,2.9-.77A76.11,76.11,0,0,1,398.33,103c-.42-6.4-.68-13.87,2.11-19.78a.22.22,0,0,0-.08-.28l-1.24-1.74-2.72,1c7.32,6,15.84,9.59,21.7,17.4.4.53,2.95-.16,2.81-.9-.89-4.55-7.21-7.17-10.57-9.7-4-3-7-6.27-11.72-8.22-.51-.2-3.18.6-2.54,1.12a120.86,120.86,0,0,0,11.68,8.71,30.18,30.18,0,0,1,10.44,11.16l2.9-.78c-3.81-6.47-9.44-9.63-15.23-14.12l-2.72,1c5.89,4.27,12.55,8.46,14.68,15.81l2.9-.78c-1.84-5.17-6.3-8.88-10.07-12.69-3.14-3.19-7.52-8.13-12-9.22-.41-.1-3.21.41-2.54,1.12,4.79,4.95,11.38,6.83,15.75,12.28.4.5,3-.19,2.81-.91-1.11-3.78-5.58-6.41-8.7-8.42-2.74-1.77-5.37-3.86-8.74-3.59-.49,0-1.86.25-2,.88-.71,2.44,6.69,4.81,8.49,5.9A35.84,35.84,0,0,1,416.16,101c.45.8,2.3-.06,2.77-.46l2.86-2.44a.3.3,0,0,0,0-.45,74.22,74.22,0,0,0-10.15-10c-3.26-2.61-7.93-6.66-12-7.78-5.52-1.52-5.37,4.92-6.15,9-3.81,19.72-3.59,40.67,6.8,58.42.46.79,3.2-.26,2.9-.77-9.17-15.66-10.52-34-7.93-51.63.21-1.47,1.55-13.59,2.69-13.83-.14,0,3.49,2.39,3.46,2.37,1.91,1.16,3.77,2.41,5.56,3.75a71.23,71.23,0,0,1,8.79,7.76c1.19,1.25,3.09,2.67,2.64,4-.2.58-1.62,1.39-2.11,1.81l2.77-.46A37.26,37.26,0,0,0,410.43,90c-1.38-1.14-12.67-7-12.34-8.12l-2,.89c3-.24,6.92,3,9.26,4.66s5.63,3.84,6.5,6.83l2.81-.9c-4.38-5.47-11-7.32-15.75-12.28l-2.54,1.11c4.27,1,8.6,6,11.62,9,3.67,3.71,8.11,7.42,9.89,12.44.27.75,3.11,0,2.9-.78-2.17-7.48-8.85-11.69-14.86-16.06-.67-.48-3.27.6-2.72,1,5.71,4.43,11.27,7.45,15.05,13.87.46.78,3.2-.27,2.9-.78-2.51-4.26-5.12-7.85-9.33-10.6a154.73,154.73,0,0,1-13-9.52L396.26,82c4.7,1.93,7.42,5.08,11.36,8,3.21,2.42,9.56,5.21,10.39,9.46l2.81-.91c-5.86-7.81-14.38-11.4-21.7-17.4-.55-.45-3.26.28-2.72,1,1.59,2.22,0,4.17-.45,6.86a65.81,65.81,0,0,0-.68,10.11,75.68,75.68,0,0,0,3.94,23.4l2.9-.77c-2-4.34-4.87-8.22-5.66-13-.84-5.13-.31-10.62,0-15.78l-2.9.78c-.3,11.23.1,21.89,4.2,32.48.28.74,3,0,2.89-.77a100.35,100.35,0,0,0-3.9-15c-.29-.85-2.6.11-2.88.62-2.81,5.09.28,13.23,1.77,18.29.23.77,2.9,0,2.9-.78a35,35,0,0,0-1-8.53c-.19-.73-3.08,0-2.9.78a43.77,43.77,0,0,0,1.87,6.13c.29.78,2.88,0,2.89-.77l0-1.06c0-.57-2.88-.15-2.9.78Z" transform="translate(-90.98 -67.65)"/><path class="cls-2" d="M396.58,84.28,396.19,86c0,.19-.09.37-.12.56a11.65,11.65,0,0,0-.06,2.83" transform="translate(-90.98 -67.65)"/><path class="cls-2" d="M395.11,84.41a17.32,17.32,0,0,0-.57,5.07c.08,1.47,3,1,2.93-.25a17.32,17.32,0,0,1,.57-5.07c.31-1.35-2.65-1-2.93.25Z" transform="translate(-90.98 -67.65)"/><path class="cls-2" d="M419.29,98.61c.34.14.48.53.7.83a3.54,3.54,0,0,0,.58.58l.87.73a3.2,3.2,0,0,0-.56-1.16l-.73-1.08a.58.58,0,0,1,.54.14,3.26,3.26,0,0,1,.61.62,7.64,7.64,0,0,1,.88,1.35,1.42,1.42,0,0,1-1.11-.85,6.57,6.57,0,0,0-.73-1.26l.26.16" transform="translate(-90.98 -67.65)"/><path class="cls-2" d="M418.18,99.44c.32.19.48.67.75,1,.44.43.93.8,1.4,1.19.77.65,2.85-.06,2.56-1.22a8.24,8.24,0,0,0-1.42-2.49l-1.06,1.63.14,0-.77.06c-.37-.07-.17,0,0,.1a5,5,0,0,1,.41.5,9.27,9.27,0,0,1,.69,1.11l1.83-1.69a4.16,4.16,0,0,1-.37-.59,5.24,5.24,0,0,0-.65-1.09l-2.44,1.47.27.16a1.92,1.92,0,0,0,2.08-.17c.45-.35.78-1.12.15-1.5l-.27-.16a1.87,1.87,0,0,0-1.92.08c-.42.26-1,.89-.52,1.39s.55,1.06.91,1.54a2.47,2.47,0,0,0,1.76,1c.9.1,2.39-.61,1.82-1.69a6.82,6.82,0,0,0-1.22-1.74,2.44,2.44,0,0,0-2.4-.72c-.67.12-1.55.91-1.06,1.63a6.85,6.85,0,0,1,1.17,2l2.57-1.22a8,8,0,0,1-1.2-1,3.58,3.58,0,0,0-.95-1.1,1.92,1.92,0,0,0-2.08.18c-.45.33-.8,1.13-.15,1.49Z" transform="translate(-90.98 -67.65)"/><path class="cls-2" d="M417.58,100.5a18.76,18.76,0,0,1,1.66,3,1.28,1.28,0,0,0-.1-.43,9.39,9.39,0,0,0-1.37-2.35,1.22,1.22,0,0,0,.21.5,19.76,19.76,0,0,1,1.16,2.41" transform="translate(-90.98 -67.65)"/><path class="cls-2" d="M416.13,100.89a19.56,19.56,0,0,1,1.66,3c.34.74,3,0,2.9-.78a7,7,0,0,0-1.57-2.91c-.4-.53-3,.16-2.8.91a7.37,7.37,0,0,0,.68,1.38c.26.5.48,1,.69,1.53.33.8,3.17-.11,2.9-.78s-.44-1-.69-1.52a6.88,6.88,0,0,1-.68-1.39l-2.81.91a6.37,6.37,0,0,1,1.38,2.65l2.9-.78a20.93,20.93,0,0,0-1.66-3c-.54-.78-3.22.32-2.9.78Z" transform="translate(-90.98 -67.65)"/><path class="cls-2" d="M420.48,98.37c.25.06.4.32.53.54a8.76,8.76,0,0,1,1.17,1.75" transform="translate(-90.98 -67.65)"/><path class="cls-2" d="M419.63,99.29c-.16-.06-.17-.16-.09,0a1.64,1.64,0,0,0,.14.22c.13.19.26.38.4.56a3.51,3.51,0,0,1,.65,1c.24.64,1.12.7,1.69.52s1.46-.64,1.21-1.3a6,6,0,0,0-1-1.55c-.41-.53-.64-1-1.32-1.27a2.09,2.09,0,0,0-2.05.55.75.75,0,0,0,.35,1.29Z" transform="translate(-90.98 -67.65)"/><path class="cls-2" d="M417.62,100.44a.37.37,0,0,0,0,.29,1.38,1.38,0,0,0,.17.25,6.69,6.69,0,0,1,.74,1.37" transform="translate(-90.98 -67.65)"/><path class="cls-2" d="M416.18,100.67c-.05.45.15.62.37,1a8.55,8.55,0,0,1,.55,1.09c.36.79,3.18-.15,2.9-.78a10.22,10.22,0,0,0-.46-.94c-.11-.18-.51-.59-.48-.81.06-.56-.86-.44-1.19-.39a3.61,3.61,0,0,0-1.11.36c-.17.09-.55.27-.58.49Z" transform="translate(-90.98 -67.65)"/><path class="cls-2" d="M399.71,122.79a8.52,8.52,0,0,0,.16.88" transform="translate(-90.98 -67.65)"/><path class="cls-2" d="M398.26,123.18a8.55,8.55,0,0,0,.17.88c.23,1,3.14.24,2.89-.78a8.52,8.52,0,0,1-.16-.88c-.08-.6-1.28-.42-1.64-.32s-1.34.48-1.26,1.1Z" transform="translate(-90.98 -67.65)"/><path class="cls-2" d="M397.22,129.14a2.24,2.24,0,0,0,0,1.12,8.15,8.15,0,0,0,.33,1.4" transform="translate(-90.98 -67.65)"/><path class="cls-2" d="M395.79,129.38a4.71,4.71,0,0,0,.28,2.67c.23.73,3.11-.09,2.9-.78a4.41,4.41,0,0,1-.32-2.37c.16-.53-.93-.38-1.17-.34-.43.07-1.53.3-1.69.82Z" transform="translate(-90.98 -67.65)"/><path class="cls-2" d="M422.36,100.25a21.45,21.45,0,0,1,9.32-4.6,50.73,50.73,0,0,1,10.43-1.16q2.75-.09,5.49-.09c3.91,0,8,.14,11.48,1.85" transform="translate(-90.98 -67.65)"/><path class="cls-2" d="M423.33,101c4.87-4,10.79-5,16.91-5.29s12.39-.75,18,1.59c1.29.54,3.37-1.31,1.65-2-6.53-2.73-14.26-2.21-21.18-1.69-6.33.46-12.33,1.91-17.33,6-1.52,1.25.77,2.37,1.94,1.42Z" transform="translate(-90.98 -67.65)"/><path class="cls-2" d="M450.2,94.07c-2.2-.92-4.69-.75-7.07-.52-1.57.16-3.14.34-4.71.53a43.84,43.84,0,0,0-7,1.24,15.53,15.53,0,0,0-6.26,3.32" transform="translate(-90.98 -67.65)"/><path class="cls-2" d="M451.07,93.19c-4.89-1.45-10.19-.45-15.15.3-4.33.66-8.29,1.8-11.73,4.59-1.52,1.24.86,1.93,1.87,1.11C431.24,95,442.84,93,449.34,95c1.1.32,3.42-1.27,1.73-1.77Z" transform="translate(-90.98 -67.65)"/><path class="cls-2" d="M461.27,124.11a12.2,12.2,0,0,0-7-4.26,24.36,24.36,0,0,0-4.67-.33,34.56,34.56,0,0,0-6.75.42,34.07,34.07,0,0,0-3.95,1.11l-4,1.29a25.08,25.08,0,0,0-3.2,1.21,24.63,24.63,0,0,0-6.59,5.42" transform="translate(-90.98 -67.65)"/><path class="cls-2" d="M462.62,123.56c-4.94-5.45-12.91-5.65-19.74-4.32-7.46,1.45-13.79,4.28-19.08,9.73-.79.82,2.07.63,2.68,0,7.35-7.57,25.1-13.51,33.44-4.31.63.69,3.39-.34,2.7-1.1Z" transform="translate(-90.98 -67.65)"/><path class="cls-2" d="M308.39,93l-.61.7a2,2,0,0,0-.3.41,1.55,1.55,0,0,0-.09.74A5.12,5.12,0,0,0,308,97a1.23,1.23,0,0,0,.62.61,1.56,1.56,0,0,0,.83,0c1.18-.26,2.41-.17,3.58-.42.66-.13,1.3-.37,2-.47.4-.06.82-.06,1.22-.16a2.78,2.78,0,0,0,.74-.29,1.28,1.28,0,0,0,.42-.38.54.54,0,0,0,0-.55.83.83,0,0,0-.64-.33c-2-.34-4.05-.27-5.93-1a7.87,7.87,0,0,0-1.15-.41.83.83,0,0,0-.54,0,.63.63,0,0,0-.35.55,1.09,1.09,0,0,0,.18.65A2.82,2.82,0,0,0,311.31,96a17.38,17.38,0,0,0,2.69-.19c.54,0,1.08,0,1.62,0a.46.46,0,0,1,.38.12.36.36,0,0,1,0,.36,1.08,1.08,0,0,1-.87.36,5.61,5.61,0,0,1-2-.25" transform="translate(-90.98 -67.65)"/><path class="cls-2" d="M307.19,92.58c-1.22,1.39-1.6,2.46-.85,4.28s2,1.81,3.72,1.58c1-.14,11.27-1.06,8.52-4a3.18,3.18,0,0,0-1.92-.63,32.69,32.69,0,0,1-4.3-.59c-1.47-.42-3.42-1.4-4.62.17-1,1.3.32,2.72,1.52,3.22,2,.83,4-.41,5.89.2l-.62-.81,0,.35.52-.74-1.1-.21c-1.18-.3-3.43,1.44-1.7,1.88,1.5.37,5.09.84,5.23-1.53a.81.81,0,0,0-.62-.82,6.6,6.6,0,0,0-2.43-.17c-.54,0-1.07.12-1.61.16-.32,0-3.12-.33-2.41-1L309,94.6c1,0,2.22.7,3.26.87s3.24,0,4,.62L316,95.4c0,.59-5.05.95-5.64,1-1.12.15-1.07.25-1.31-.87a1.89,1.89,0,0,1,.55-2.19c1.19-1.36-1.58-1.72-2.4-.78Z" transform="translate(-90.98 -67.65)"/><path class="cls-2" d="M224.88,93.83c-.91-.12-1.83-.23-2.75-.3-.22,0-.49,0-.57.19a.52.52,0,0,0,.12.47,7.67,7.67,0,0,0,.72.88,1.62,1.62,0,0,0,.92.58,1.57,1.57,0,0,0,.93-.28,1.06,1.06,0,0,0,.64-.82l0,12c0,.82,0,1.64,0,2.46a2.46,2.46,0,0,1-.22,1,5.54,5.54,0,0,1-.37-1.13c-1-4.23-.46-8.68-.87-13,0-.23-.1-.53-.34-.54s-.3.18-.38.35a12,12,0,0,0-.75,6.24,54.29,54.29,0,0,1,.57,6.34" transform="translate(-90.98 -67.65)"/><path class="cls-2" d="M225.43,93c-1.53-.2-3.44-.73-4.78.29-.26.19-.64.47-.54.86.82,3.11,5.11,3,6.23.27l-2.91.34c0,4.94.79,10.63-.23,15.46l2.9-.55c-1.11-3.36-1-6.86-1.07-10.35,0-1.41.46-3.73-.81-4.67-.61-.45-1.84,0-2.32.46-3.18,2.86-.9,10.07-.84,13.59,0,1,2.92.4,2.9-.78-.05-2.89-2.21-10,.29-12.26l-2.32.45c.89.66.22,5.69.24,6.74a25.57,25.57,0,0,0,1,7.59c.35,1.06,2.71.34,2.9-.55,1-4.84.25-10.52.24-15.47,0-1.38-2.56-.51-2.91.34.64-.32.5-.78-.42-1.39l-.54.87c-.42.32,2,.52,1.86.5,1.19.16,3-1.48,1.1-1.74Z" transform="translate(-90.98 -67.65)"/><path class="cls-2" d="M289.54,106.68a9.68,9.68,0,0,0-3-4,.77.77,0,0,0-.42-.21,3.46,3.46,0,0,0,0,1.86,10.06,10.06,0,0,0,.68,1.75c.38.82.77,1.63,1.12,2.46a11,11,0,0,1,.66,1.93,13.53,13.53,0,0,1,.16,3.18c.3-.14.38-.52.42-.85a32.67,32.67,0,0,0,.16-4.08,3.33,3.33,0,0,0-.17-1.13c-.28-.7-1-1.12-1.47-1.69-1-1.1-1.13-2.67-1.78-4a.87.87,0,0,0-.49-.52.73.73,0,0,0-.8.53,5.3,5.3,0,0,0-.14,1.06" transform="translate(-90.98 -67.65)"/><path class="cls-2" d="M291,106.29a8.59,8.59,0,0,0-3.67-4.47c-.61-.3-2.45,0-2.6.86-.36,1.88.48,3.35,1.24,5a13.41,13.41,0,0,1,1.37,6.35c0,1,2.51-.08,2.79-.4,1-1.15.89-4.1.67-5.59a3.38,3.38,0,0,0-.9-1.9,9.25,9.25,0,0,1-2-3.25c-.47-1.28-.75-2.32-2.26-2.24a2.51,2.51,0,0,0-2.6,2.52c-.09,1.06,2.81.48,2.88-.41a2.29,2.29,0,0,1,.36-1.29l-1.17.66.49-.1-1.53-.1c.81.56.93,1.89,1.29,2.77a7,7,0,0,0,1.38,2.14,3.46,3.46,0,0,1,1.14,2.26c.09,1,.32,3.65-.47,4.55l2.79-.4a12.27,12.27,0,0,0-1-5.52c-.75-1.73-2-3.5-1.63-5.47l-2.6.87c1.46.7,2.48,2.53,3.09,3.92.4.92,3.24,0,2.9-.78Z" transform="translate(-90.98 -67.65)"/><path class="cls-2" d="M537.36,107.58a10.24,10.24,0,0,0-1.13-.94,7.65,7.65,0,0,1-2.1-2.59,2,2,0,0,1-.27-1.36,34.06,34.06,0,0,0,3.09,4.17" transform="translate(-90.98 -67.65)"/><path class="cls-2" d="M538.7,107c-.68-.67-1.49-1.16-2.13-1.88s-1.38-1.64-1.26-2.56l-2.79.75a36.84,36.84,0,0,0,3.09,4.17c.73.86,3.51-.22,2.67-1.19a39.43,39.43,0,0,1-3.09-4.17c-.52-.83-2.67-.16-2.79.74-.31,2.39,2.18,3.91,3.63,5.33.81.8,3.56-.32,2.67-1.19Z" transform="translate(-90.98 -67.65)"/><path class="cls-2" d="M532.42,89.27a.92.92,0,0,0-.48-.89,2.89,2.89,0,0,0-1-.3,1.15,1.15,0,0,0-1,.13,1,1,0,0,0-.27.73,6.25,6.25,0,0,0,.15,2,1.64,1.64,0,0,0,.34-.73c.08-.25.27-.53.54-.53a.69.69,0,0,1,.5.34,2.94,2.94,0,0,1,.55,1.49A5.64,5.64,0,0,1,532,89.8c-.95,4.44.65,9.06.15,13.58a.41.41,0,0,1-.19-.22,17.3,17.3,0,0,1-1.83-5.91,35.65,35.65,0,0,1-.2-6.2" transform="translate(-90.98 -67.65)"/><path class="cls-2" d="M533.87,88.88c-.32-1.55-2.28-1.93-3.67-1.63-2.11.46-2.1,2.25-1.82,4.1.16,1.05,2.51.3,2.81-.33.51-.63.55-.85.11-.67l-1.73.08a1.86,1.86,0,0,1,.74,1.49c.24,1,2.83.36,2.9-.55a6,6,0,0,1,.28-1.74l-2.9.33c-.78,4.54.5,9,.14,13.58l2.8-.74c-2.45-2.83-2.22-8.52-2.1-11.92,0-1.26-2.88-.7-2.91.33-.13,3.82-.36,9.65,2.33,12.75.56.66,2.72.2,2.79-.75.35-4.54-.93-9-.15-13.58.21-1.22-2.66-.68-2.9.33a5.71,5.71,0,0,0-.28,1.74l2.9-.56A3,3,0,0,0,531.86,89a2,2,0,0,0-1.74.08,3,3,0,0,0-1.65,1.85l2.81-.33A3,3,0,0,1,531.4,88l-.86.82.43.79c.22,1.08,3.13.35,2.9-.77Z" transform="translate(-90.98 -67.65)"/><path class="cls-2" d="M600.07,107.09c-.7-2.8-3.19-4.9-3.81-7.72" transform="translate(-90.98 -67.65)"/><path class="cls-2" d="M601.52,106.7c-.8-2.81-3.08-4.88-3.81-7.72-.25-1-3.16-.21-2.9.78.73,2.84,3,4.91,3.81,7.72.28,1,3.18.19,2.9-.78Z" transform="translate(-90.98 -67.65)"/><path class="cls-2" d="M652.92,94a1.3,1.3,0,0,0-.4-1.63,3,3,0,0,0-1.75-.5.9.9,0,0,0-.37,0,.59.59,0,0,0-.23.24,2.72,2.72,0,0,0-.25,1.6l.22,5.36a.69.69,0,0,0,.22-.39,15.51,15.51,0,0,0,1-5,.36.36,0,0,1,0-.23.29.29,0,0,1,.36-.09.68.68,0,0,1,.29.29,5.44,5.44,0,0,1,.89,3.9,24.55,24.55,0,0,1,.14-4.2,1.72,1.72,0,0,0-.38.87,24.5,24.5,0,0,0-.48,2.53c-.19,1.49-.13,3-.2,4.51-.13,2.69-.69,5.36-.59,8,.16-2.28-.49-4.54-.56-6.82a13.64,13.64,0,0,0-.26-3.73" transform="translate(-90.98 -67.65)"/><path class="cls-2" d="M654.36,93.81c.28-2.33-2.34-3.15-4.31-2.39-2.83,1.09-1.45,5.9-1.36,8.12,0,1,2.63-.15,2.89-.61,1-1.71.95-3.7,1.23-5.59l-1.28.81.36-.08L650.38,94a5,5,0,0,1,1.09,3.86l2.89-.6a30.06,30.06,0,0,1,.13-4c.1-1.06-2.59-.25-2.88.43-1,2.22-.94,4.58-1,6.95-.13,3.07-.63,6.1-.63,9.17,0,.7,2.88.21,2.89-.77A55.61,55.61,0,0,0,652,98.48c-.15-.8-3.06-.13-2.9.78A55.45,55.45,0,0,1,650,109.8l2.89-.77c0-2.71.47-5.35.6-8s0-5.28,1-7.73l-2.88.43a33.44,33.44,0,0,0-.14,4.36c0,.74,2.84.16,2.88-.6.14-2.39-.32-5.14-3.14-4.47-.33.08-1.21.37-1.28.81-.28,1.84-.28,3.91-1.23,5.59l2.89-.61c-.06-1.31-.92-5.77.14-6.84l-1.56.71,1.31,1.62c-.11,1,2.78.4,2.88-.44Z" transform="translate(-90.98 -67.65)"/><path class="cls-2" d="M648.36,101.66c.35.11.48.52.57.88.42,1.73.82,3.46,1.22,5.2" transform="translate(-90.98 -67.65)"/><path class="cls-2" d="M647.22,102.39c.51.31.64,2.13.78,2.7.24,1,.47,2,.7,3s3.15.34,2.9-.78c-.3-1.3-.6-2.6-.91-3.9-.22-.94-.29-2-1.19-2.52s-3.52.73-2.28,1.46Z" transform="translate(-90.98 -67.65)"/><path class="cls-2" d="M709.74,106.76l-.52-2.94a13.8,13.8,0,0,0-.3-1.39,6,6,0,0,0-.66-1.41c-.25-.41-.56-.78-.8-1.2a2.17,2.17,0,0,1-.31-1.38,2.38,2.38,0,0,0,.05.8" transform="translate(-90.98 -67.65)"/><path class="cls-2" d="M711.18,106.38a33.53,33.53,0,0,0-.82-4.34c-.38-1.22-1.75-2.44-1.74-3.7,0-1.56-2.9-1.17-2.94.2a5.55,5.55,0,0,0,.07,1.08c.22,1.4,3.12.67,2.9-.77l0-.51-2.94.2c0,1.61,1,2.4,1.61,3.79a22.57,22.57,0,0,1,1,4.82c.24,1.4,3.15.66,2.89-.77Z" transform="translate(-90.98 -67.65)"/><path class="cls-2" d="M706.85,100.72l.67,2.54c.19.73.39,1.47.63,2.19a19.67,19.67,0,0,1,.8,2.61,12.67,12.67,0,0,1-.28,4.37,12.63,12.63,0,0,0-1.14-6.51,4.67,4.67,0,0,0-.33,1.9l-.05,1.57" transform="translate(-90.98 -67.65)"/><path class="cls-2" d="M705.4,101.1c.5,1.92,1,3.83,1.64,5.71a11.45,11.45,0,0,1,.18,6l2.89-.78a13.66,13.66,0,0,0-1.13-6.51c-.23-.6-2.7.16-2.87.66a11.69,11.69,0,0,0-.41,3.59c0,.37,2.87,0,2.9-.78a10.74,10.74,0,0,1,.36-3.34l-2.87.65a13.88,13.88,0,0,1,1.13,6.51c0,.33,2.75,0,2.89-.78a11.35,11.35,0,0,0-.18-6c-.63-1.88-1.13-3.79-1.63-5.7-.16-.59-3.06.17-2.9.77Z" transform="translate(-90.98 -67.65)"/><path class="cls-2" d="M758.39,94.32a1.17,1.17,0,0,0-1.56-1.41c-.35.14-.61.43-1,.59a.44.44,0,0,0-.18-.38,22,22,0,0,1,.4,4.45c0,.86.15,1.71.25,2.57a56.6,56.6,0,0,1,.43,6.5c-.09-1.09-.9-2-1.15-3.06l.6,2.68a3.66,3.66,0,0,0,.63,1.58.8.8,0,0,0,.13-.49,39.06,39.06,0,0,1,.67-7.73c.08-.34.18-.68.23-1a11.67,11.67,0,0,0,0-1.45,10,10,0,0,1,.2-2" transform="translate(-90.98 -67.65)"/><path class="cls-2" d="M759.86,94.22c0-3.13-3.05-2.66-5-1.42l2.42.31-.18-.38c-.6-1.28-3.18-.71-2.9.77a76.29,76.29,0,0,1,1.06,13.24l2.92-.48a27.44,27.44,0,0,0-1.15-3.06c-.47-1.37-3.21-.65-2.89.77a16.29,16.29,0,0,0,1.35,4.52c.63,1.16,2.54.19,2.79-.74.55-2.07.18-4.46.49-6.59s.46-4.11.76-6.17c.22-1.52-2.75-1.18-3,.19-.29,2.06-.44,4.1-.75,6.17s.06,4.53-.49,6.59l2.79-.75a15.64,15.64,0,0,1-1.1-4l-2.89.77a31.32,31.32,0,0,1,1.14,3.06c.29,1.29,2.93.74,2.92-.48a77.78,77.78,0,0,0-1.1-13.82l-2.9.77.19.39c.46,1,1.64.83,2.42.32l.06.2c0,1.58,3,1.19,2.94-.19Z" transform="translate(-90.98 -67.65)"/><path class="cls-2" d="M756.4,99.62a1.19,1.19,0,0,0-.77.76,3.43,3.43,0,0,0-.18,1.1c-.05,1-.05,2.07,0,3.1" transform="translate(-90.98 -67.65)"/><path class="cls-2" d="M755.57,99.47a2.24,2.24,0,0,0-1.53,1.84A23.53,23.53,0,0,0,754,105c0,.4,2.91,0,2.9-.78s0-1.68,0-2.52c0-.32-.06-1.73.34-1.9s.88-.44.37-.69-1.58.2-2,.39Z" transform="translate(-90.98 -67.65)"/><path class="cls-2" d="M758.45,93.8a1.36,1.36,0,0,0-.22-.77,1.46,1.46,0,0,0-.78-.47,2.35,2.35,0,0,0-.83-.11.6.6,0,0,0-.23.06.57.57,0,0,0-.15.23A3,3,0,0,0,756,94" transform="translate(-90.98 -67.65)"/><path class="cls-2" d="M759.9,93.41c-.1-1.33-1.46-1.79-2.63-1.79a2.8,2.8,0,0,0-2.32,1,3.07,3.07,0,0,0-.37,1.76c0,.23.41.37.56.41a2.46,2.46,0,0,0,1.08-.06c.55-.15,1.26-.48,1.25-1.12a2.73,2.73,0,0,1,.06-.5s.17-.46,0-.31l-.59.36.11-.05-.77.21c-.12,0-.12,0,.09,0a1,1,0,0,1,.33.13c.24.17.25.48.28.75s.39.36.56.4a2.32,2.32,0,0,0,1.08-.06c.51-.14,1.3-.48,1.25-1.12Z" transform="translate(-90.98 -67.65)"/><path class="cls-2" d="M823.23,107.22c-.31-1.13,0-2.37-.39-3.48a6.13,6.13,0,0,0-.71-1.27,10.31,10.31,0,0,1-1.76-3.5,57,57,0,0,0,1.15,8.33,15,15,0,0,1,.34,2,8.85,8.85,0,0,0,.24,2.31l.42-3.28" transform="translate(-90.98 -67.65)"/><path class="cls-2" d="M824.68,106.83c-.23-1.45-.08-2.86-.75-4.21s-1.67-2.49-2.11-4c-.27-.92-3-.16-2.9.78a60.28,60.28,0,0,0,.88,7c.35,1.88.45,3.84.85,5.68.2.88,2.8.16,2.9-.59l.41-3.28c.13-1-2.77-.49-2.88.4l-.42,3.29,2.89-.59c-.41-1.85-.5-3.8-.86-5.68a62.71,62.71,0,0,1-.87-7l-2.9.78a13.4,13.4,0,0,0,1.64,3.33c1,1.68.92,3,1.22,4.92.14.87,3.06.2,2.9-.78Z" transform="translate(-90.98 -67.65)"/><path class="cls-2" d="M871.45,93.58l0-1.09a1.23,1.23,0,0,0-.09-.47,1.22,1.22,0,0,0-.37-.41,1.84,1.84,0,0,0-1.15-.54,1.77,1.77,0,0,0-.81.32,4.66,4.66,0,0,0-1.29,1,1.7,1.7,0,0,0-.4,1.53.16.16,0,0,0,.12.14c.06,0,.11,0,.15-.09l1-1.22a.54.54,0,0,1,.2-.17.42.42,0,0,1,.39.11,2.49,2.49,0,0,1,.67,1.13,24.34,24.34,0,0,1,1.33,9.07,12.4,12.4,0,0,0,.19,4.26L871,96.71a11.56,11.56,0,0,1,0-1.86c0-.25.06-.57-.16-.7s-.57.14-.85.3a2.8,2.8,0,0,1-1,.27,1.11,1.11,0,0,0-.83.52,1.24,1.24,0,0,0-.1.47,51.21,51.21,0,0,0,0,9.59.92.92,0,0,0,.17.52,1,1,0,0,0,.24-.37c1.18-2.42,1.1-5.24,1-7.93" transform="translate(-90.98 -67.65)"/><path class="cls-2" d="M872.9,93.19c-.27-6.2-8.57-.66-6.84,1.41.43.51,1.82.06,2.23-.2.7-.44,1-1.13,1.59-1.66l-2.31.48c1.62.47,2,6,2.06,7.18.18,2.4-.26,4.78.24,7.14.19.88,2.93.13,2.9-.78l-.24-7.54c0-1.41.5-4.21-.21-5.46a.87.87,0,0,0-.86-.34c-1.37.09-3.75.61-4.57,1.84-.64,1-.38,3.27-.41,4.44-.05,2-.27,4.57.38,6.51.3.87,2.45.09,2.79-.41,1.64-2.48,1.44-5.83,1.34-8.67,0-.76-2.93-.23-2.89.78.08,2.47.33,5.73-1.12,7.93l2.78-.41c-.66-2-.44-4.44-.38-6.51l.1-2.22a1.16,1.16,0,0,1,.71-1.63c.1-.25,1.67-.28.1-.19l-.86-.34c.63,1.11.16,4.24.2,5.46l.24,7.54,2.9-.78c-.54-2.53,0-5.14-.28-7.71-.16-1.64-.43-5-1.6-6.39a2,2,0,0,0-2.32-.71c-1.13.3-1.18,1.24-2,1.77l2.23-.2,1.58-2-1.72.15c1.33.34,1.32,1,1.37,2.25,0,.76,3,.23,2.9-.78Z" transform="translate(-90.98 -67.65)"/><path class="cls-2" d="M871.43,92.77l-.34-.92a2.79,2.79,0,0,0,.37,1.13.34.34,0,0,0,.09-.28,1.43,1.43,0,0,0-.06-.51.61.61,0,0,0-.31-.39.89.89,0,0,0-.72.14" transform="translate(-90.98 -67.65)"/><path class="cls-2" d="M872.88,92.39l-.34-.92c-.17-.46-1.26-.17-1.57-.09s-1.39.37-1.33.86a3.2,3.2,0,0,0,.37,1.13c.18.34.89.22,1.18.17a2.74,2.74,0,0,0,1.58-.66,1.1,1.1,0,0,0-.18-1.55,1.94,1.94,0,0,0-1.26-.14,5.67,5.67,0,0,0-1.71.53c-.29.15-1,.58-.35.79a3.2,3.2,0,0,0,2-.36l-.89.22-.56,0c.15,0,.18.18.21.32s.05.46.08.42l2.76-.49a3.42,3.42,0,0,1-.36-1.12l-2.9.77.34.92c.26.71,3.12-.17,2.9-.77Z" transform="translate(-90.98 -67.65)"/><path class="cls-2" d="M921.24,112c.31-1,.81-1.89,1.07-2.88a3.4,3.4,0,0,0-.38-2.94,2.48,2.48,0,0,0-.44.76,10.76,10.76,0,0,1-2.52,2.75,10.77,10.77,0,0,0-1.71,2.09,2.5,2.5,0,0,0-.49,1.29c1.45-1.56,3.57-2.42,4.86-4.12a2.53,2.53,0,0,1,.1,1.63,5,5,0,0,1-.69,1.5,2.76,2.76,0,0,1-.52.61,3.16,3.16,0,0,1-.89.42l-1.38.46a7.34,7.34,0,0,1,2.23-2.51" transform="translate(-90.98 -67.65)"/><path class="cls-2" d="M922.7,111.86c.73-2.11,1.93-4.11.57-6.23-.51-.81-2.29-.06-2.69.52a14.49,14.49,0,0,1-1.39,2c-.54.56-1.17,1-1.71,1.59a7.08,7.08,0,0,0-2.16,3.51c-.19,1.23,2.21.53,2.62.11,1.58-1.61,3.61-2.59,5-4.34l-2.81.33c.59,1.79-.56,2.92-2.14,3.45l1.56.83a7.6,7.6,0,0,1,2-2.29c.51-.43.24-.91-.29-1.09a2.39,2.39,0,0,0-2.05.54,9,9,0,0,0-2.42,2.73c-.49.94,1,1,1.56.83,1.41-.47,2.9-.79,3.83-2a4.13,4.13,0,0,0,.8-3.74c-.36-1.1-2.35-.21-2.8.34-1.3,1.57-3.25,2.45-4.68,3.9l2.62.11c.23-1.47,1.57-2.64,2.62-3.59a16.57,16.57,0,0,0,2.45-3.09l-2.7.53c1.09,1.71-.22,3.76-.8,5.41-.36,1,2.55.68,2.91-.34Z" transform="translate(-90.98 -67.65)"/><path class="cls-2" d="M892.17,141.13a18.39,18.39,0,0,1,.6,3.61,1,1,0,0,1-.15.75.67.67,0,0,1-.76.13,1.23,1.23,0,0,1-.57-.58,2.51,2.51,0,0,1-.3-1.14,3.14,3.14,0,0,0,0-.75.62.62,0,0,0-.49-.5" transform="translate(-90.98 -67.65)"/><path class="cls-2" d="M890.73,141.51c.18.71.33,1.41.44,2.13.06.44.4,1.78,0,2.1l1.2-.54c1-.31.52-.21.26-.82a2.79,2.79,0,0,1-.17-1c0-.55,0-1-.59-1.22a2.85,2.85,0,0,0-1.86.19c-.11,0-1.31.61-.88.77s.41.7.43,1.16a2.48,2.48,0,0,0,.49,1.42c.63.77,1.69.56,2.54.32s1.66-.62,1.65-1.67a14.81,14.81,0,0,0-.6-3.62c-.15-.59-3,.16-2.89.77Z" transform="translate(-90.98 -67.65)"/><path class="cls-2" d="M707.14,98.42c-.06-.61.13-1.28-.17-1.82a2.11,2.11,0,0,1-.18-.33" transform="translate(-90.98 -67.65)"/><path class="cls-2" d="M708.59,98c0-.39,0-.79,0-1.18a2.75,2.75,0,0,0-.35-1c-.33-.69-3.12.31-2.9.78a2.53,2.53,0,0,1,.35,1c0,.4,0,.79,0,1.19s2.95,0,2.9-.78Z" transform="translate(-90.98 -67.65)"/><path class="cls-2" d="M706.43,96.86a6.19,6.19,0,0,1-1,2.94c-.54.89-1.19,1.72-1.72,2.63a12.22,12.22,0,0,0-.93,2" transform="translate(-90.98 -67.65)"/><path class="cls-2" d="M705,97c-.29,2.71-2.66,4.79-3.6,7.31-.59,1.55,2.32,1.53,2.77.32,1-2.74,3.44-4.85,3.76-7.85.16-1.48-2.79-1.09-2.93.22Z" transform="translate(-90.98 -67.65)"/><path class="cls-2" d="M286.82,96.7a1.62,1.62,0,0,1,1.2-.42,1.21,1.21,0,0,1,.78,1.32,13.27,13.27,0,0,1-.38,1.63,8.06,8.06,0,0,0,.43,3.17,23.91,23.91,0,0,1,.33,6l-.65-3.73a13.4,13.4,0,0,1-.19-5.7c.07-.29.2-.61.48-.69a.63.63,0,0,1,.66.31,1.9,1.9,0,0,1,.2.75c.16,1.44.27,2.88.33,4.33a11.44,11.44,0,0,1-.06,2.19,12.22,12.22,0,0,1-1.53,3.86q0-3.14,0-6.27a10.3,10.3,0,0,0-.1-2.22c-.22-1.16-.84-2.3-.63-3.46" transform="translate(-90.98 -67.65)"/><path class="cls-2" d="M287.76,97.29c-1.29.77-.78,3.58-.55,4.71a27.84,27.84,0,0,1,.51,6.51l2.91-.52c-.27-1.55-.6-3.11-.82-4.68-.12-.87.15-2.48-.22-3.08.2-.55,0-.71-.67-.5-.77-.25-1,0-.6.84-.21,1.36.28,2.92.24,4.31a10.43,10.43,0,0,1-1.52,4.7h2.84c0-2.22,0-4.43,0-6.65,0-1.82-.78-3.51-.74-5.3,0-1.42-2.89-.93-2.92.26-.05,1.84.71,3.47.73,5.31,0,2.21-.06,4.43,0,6.65,0,1.41,2.38.84,2.83,0a12.8,12.8,0,0,0,1.63-7.3c-.09-1.6.32-4.71-1.71-5.19-5.21-1.22-2.33,9.41-2,11.44.21,1.16,2.89.53,2.91-.52a28.35,28.35,0,0,0-.25-5.75,12.28,12.28,0,0,1-.51-3.4,12.14,12.14,0,0,0,.37-1.89c-.16-2.53-2.86-2-4.37-1.09-1.68,1,.76,1.84,1.88,1.17Z" transform="translate(-90.98 -67.65)"/><path class="cls-2" d="M530,88.07a15.16,15.16,0,0,0-2.41,1.7,3.86,3.86,0,0,0-.53.54c-.36.49-.49,1.12-.81,1.63a6,6,0,0,1-2.45,1.78,12.15,12.15,0,0,0-2.65,1.91" transform="translate(-90.98 -67.65)"/><path class="cls-2" d="M529.38,87.23a10.06,10.06,0,0,0-4.1,3.73c-1,1.85-3.49,2.59-5.07,4s.84,2.27,1.91,1.31c1.47-1.31,3.41-2,4.8-3.29A5.69,5.69,0,0,0,528,91.28a6.33,6.33,0,0,1,2.62-2.37c1.69-1,.14-2.52-1.28-1.68Z" transform="translate(-90.98 -67.65)"/></svg>